<svg width="80" height="80" viewBox="0 0 80 80" fill="none" xmlns="http://www.w3.org/2000/svg">
<circle cx="40" cy="40" r="38" stroke="#C0CAD6" stroke-width="4"/>
<path d="M24.9981 24.9411C24.8347 24.5489 24.3709 24.3557 23.9778 24.5193C23.5848 24.6828 23.3921 25.1457 23.5551 25.5396C23.7177 25.9324 24.1833 26.1243 24.5755 25.9614C24.9699 25.7977 25.1599 25.3357 24.9981 24.9411Z" fill="#C0CAD6"/>
<path d="M27.6718 24.9435C27.5105 24.5496 27.0437 24.3583 26.6515 24.5209C26.2581 24.6839 26.0662 25.1467 26.2288 25.5404C26.3912 25.9336 26.8561 26.1267 27.2492 25.9631C27.6412 25.7999 27.8357 25.3367 27.6718 24.9435Z" fill="#C0CAD6"/>
<path d="M30.4999 24.9433C30.3385 24.5492 29.8717 24.3587 29.4796 24.5206C29.0859 24.6832 28.8945 25.1469 29.0569 25.5402C29.2193 25.9334 29.6842 26.1264 30.0773 25.9628C30.4693 25.7997 30.6638 25.3364 30.4999 24.9433Z" fill="#C0CAD6"/>
<path d="M59.773 54.4861L56.3154 51.0286L59.4204 50.0666C59.7428 49.9668 59.9693 49.6608 59.9705 49.3234C59.9718 48.986 59.7478 48.6782 59.4262 48.5759L55.3532 47.2793V41.5893C55.3532 41.1578 55.0034 40.808 54.5719 40.808C54.1405 40.808 53.7906 41.1578 53.7906 41.5893V46.7819L47.2508 44.7C46.6572 44.5113 46.0808 45.0902 46.2691 45.6815L48.4487 52.5273H23.7387C22.5387 52.5273 21.5626 51.5512 21.5626 50.3513V28.8828H53.7906V34.7098C53.7906 35.1413 54.1405 35.491 54.5719 35.491C55.0034 35.491 55.3532 35.1413 55.3532 34.7098L55.3539 25.3379C55.3539 23.2766 53.677 21.5996 51.6156 21.5996H23.7387C21.6773 21.5996 20.0004 23.2766 20.0004 25.3379L20 50.3513C20 52.4128 21.6772 54.09 23.7387 54.09H48.9461L50.1453 57.8569C50.2474 58.1775 50.5536 58.4013 50.89 58.4013C51.2265 58.4012 51.5328 58.1769 51.6345 57.8561L52.6375 54.6928L56.1019 58.1572C56.4071 58.4623 56.9016 58.4623 57.2069 58.1572L59.7731 55.591C60.0756 55.3002 60.0756 54.7771 59.773 54.4861ZM21.563 25.3379C21.563 24.1382 22.5389 23.1622 23.7387 23.1622H51.6157C52.8154 23.1622 53.7914 24.1382 53.7914 25.3379V27.3201H21.563V25.3379ZM56.6544 56.4999L52.8337 52.6792C52.4265 52.272 51.7102 52.4481 51.5365 52.9955L50.8882 55.0398L48.2166 46.6475L56.5817 49.3103L54.6162 49.9191C54.0651 50.0899 53.8861 50.8091 54.2949 51.2179L58.1156 55.0387L56.6544 56.4999Z" fill="#C0CAD6"/>
<path d="M29.1574 30.5059C28.944 30.4773 28.7317 30.4629 28.5266 30.4629C25.9219 30.4629 23.8027 32.5821 23.8027 35.1867C23.8027 37.7914 25.9219 39.9105 28.5266 39.9105C30.7641 39.9105 32.7107 38.3208 33.1553 36.1306C33.2411 35.7077 32.968 35.2954 32.545 35.2094C32.1222 35.1237 31.7098 35.3967 31.624 35.8197C31.3265 37.2846 30.024 38.3479 28.5265 38.3479C26.7833 38.3479 25.3652 36.9298 25.3652 35.1867C25.3652 33.4436 26.7833 32.0255 28.5265 32.0255C28.6626 32.0255 28.8052 32.0353 28.9502 32.0547C29.3774 32.112 29.771 31.8116 29.8282 31.3839C29.8854 30.9562 29.5851 30.5631 29.1574 30.5059Z" fill="#C0CAD6"/>
<path d="M28.5266 50.8579C31.1314 50.8579 33.2504 48.7387 33.2504 46.1341C33.2504 43.5293 31.1314 41.4102 28.5266 41.4102C25.9219 41.4102 23.8027 43.5293 23.8027 46.1341C23.8027 48.7387 25.9219 50.8579 28.5266 50.8579ZM28.5266 42.9727C30.2698 42.9727 31.6879 44.3908 31.6879 46.134C31.6879 47.8771 30.2698 49.2952 28.5266 49.2952C26.7834 49.2952 25.3653 47.8771 25.3653 46.134C25.3653 44.3908 26.7834 42.9727 28.5266 42.9727Z" fill="#C0CAD6"/>
<path d="M48.6483 32.4258H35.9024C35.471 32.4258 35.1211 32.7756 35.1211 33.2071C35.1211 33.6386 35.471 33.9884 35.9024 33.9884H48.6483C49.0797 33.9884 49.4296 33.6386 49.4296 33.2071C49.4296 32.7756 49.0797 32.4258 48.6483 32.4258Z" fill="#C0CAD6"/>
<path d="M49.4296 36.961C49.4296 36.5295 49.0797 36.1797 48.6483 36.1797H35.9024C35.471 36.1797 35.1211 36.5295 35.1211 36.961C35.1211 37.3925 35.471 37.7423 35.9024 37.7423H48.6483C49.0797 37.7423 49.4296 37.3925 49.4296 36.961Z" fill="#C0CAD6"/>
<path d="M35.9024 45.0899H43.0963C43.5277 45.0899 43.8776 44.7401 43.8776 44.3086C43.8776 43.8771 43.5277 43.5273 43.0963 43.5273H35.9024C35.471 43.5273 35.1211 43.8771 35.1211 44.3086C35.1211 44.7401 35.471 45.0899 35.9024 45.0899Z" fill="#C0CAD6"/>
<path d="M35.9024 48.8419H43.8783C44.3097 48.8419 44.6596 48.4921 44.6596 48.0606C44.6596 47.6291 44.3097 47.2793 43.8783 47.2793H35.9024C35.471 47.2793 35.1211 47.6291 35.1211 48.0606C35.1211 48.4921 35.471 48.8419 35.9024 48.8419Z" fill="#C0CAD6"/>
<path d="M27.9344 34.1746C27.6292 33.8695 27.1347 33.8695 26.8294 34.1746C26.5243 34.4797 26.5243 34.9744 26.8294 35.2795L28.027 36.4771C28.3321 36.7822 28.8267 36.7822 29.1319 36.4771L32.9277 32.6814C33.2328 32.3763 33.2328 31.8816 32.9277 31.5765C32.6226 31.2714 32.1281 31.2714 31.8227 31.5765L28.5794 34.8198L27.9344 34.1746Z" fill="#C0CAD6"/>
<path d="M55.2214 37.7094C55.0396 37.4313 54.6824 37.3023 54.3641 37.391C54.0487 37.4789 53.8187 37.7593 53.7935 38.0857C53.7374 38.8104 54.6599 39.2022 55.1482 38.6706C55.3886 38.4087 55.4185 38.0048 55.2214 37.7094Z" fill="#C0CAD6"/>
</svg>
