<svg width="34" height="24" viewBox="0 0 34 24" fill="none" xmlns="http://www.w3.org/2000/svg">
<path d="M6.80008 6.18359H5.66675V7.31693H6.80008V6.18359Z" fill="#012F6B"/>
<path d="M11.3335 7.18359H10.2002V8.31693H11.3335V7.18359Z" fill="#012F6B"/>
<path d="M9.06668 6.18359H7.93335V8.45026H9.06668V6.18359Z" fill="#012F6B"/>
<path d="M8.63826 11.149C8.59222 11.152 8.54604 11.152 8.50007 11.149C7.91166 11.1866 7.40413 10.7402 7.36652 10.1518C7.36355 10.1051 7.36362 10.0583 7.36673 10.0117L6.80007 10.0157H6.2334C6.19749 11.2316 7.15416 12.2464 8.37009 12.2824C8.41344 12.2836 8.45679 12.2836 8.50007 12.2824C9.71599 12.3183 10.7308 11.3616 10.7667 10.1457C10.768 10.1023 10.768 10.059 10.7667 10.0157H9.6334C9.67158 10.6035 9.22604 11.1108 8.63826 11.149Z" fill="#012F6B"/>
<path d="M25.5 7.18359H24.3667V9.45026H25.5V7.18359Z" fill="#012F6B"/>
<path d="M24.9337 12.2824C26.1855 12.2824 27.2003 11.2675 27.2003 10.0157H26.067C26.1052 10.6035 25.6596 11.1108 25.0719 11.149C25.0258 11.152 24.9796 11.152 24.9337 11.149C24.3452 11.1866 23.8377 10.7402 23.8001 10.1518C23.7971 10.1051 23.7972 10.0583 23.8003 10.0117L23.2337 10.0157H22.667C22.667 11.2675 23.6818 12.2824 24.9337 12.2824Z" fill="#012F6B"/>
<path d="M31.1667 13.4161H28.1316C28.5329 13.0926 28.8833 12.7106 29.1709 12.2828H31.7333C32.0463 12.2828 32.3 12.0291 32.3 11.7161V7.74948C32.3 3.68095 29.0019 0.382812 24.9333 0.382812C20.8648 0.382812 17.5667 3.68095 17.5667 7.74948V11.7161C17.5667 12.0291 17.8204 12.2828 18.1333 12.2828H20.6958C20.9834 12.7106 21.3337 13.0926 21.7351 13.4161H18.7C17.8047 13.4186 16.9637 13.8457 16.4333 14.567C15.903 13.8457 15.062 13.4186 14.1667 13.4161H13.6V11.1495H14.1667C15.1056 11.1495 15.8667 10.3884 15.8667 9.44948C15.8667 8.51058 15.1056 7.74948 14.1667 7.74948H13.6V7.14938C13.7881 7.17112 13.9773 7.18225 14.1667 7.18281H14.7333V6.04948H14.1667C13.9769 6.04792 13.7876 6.03276 13.6 6.00415V5.48281C13.6 2.66612 11.3167 0.382812 8.5 0.382812C5.68331 0.382812 3.4 2.66612 3.4 5.48281V6.04948H2.26667V7.18281H3.4V7.74948H2.83333C1.89444 7.74948 1.13333 8.51058 1.13333 9.44948C1.13333 10.3884 1.89444 11.1495 2.83333 11.1495H3.4V13.4161H2.83333C1.26933 13.418 0.00184167 14.6855 0 16.2495V23.6161H34V16.2495C33.9982 14.6855 32.7307 13.418 31.1667 13.4161ZM13.6 8.88281H14.1667C14.4796 8.88281 14.7333 9.13654 14.7333 9.44948C14.7333 9.76242 14.4796 10.0161 14.1667 10.0161H13.6V8.88281ZM4.53333 5.48281C4.53333 3.29208 6.30927 1.51615 8.5 1.51615C10.6907 1.51615 12.4667 3.29208 12.4667 5.48281V5.66131C11.0841 5.00554 10.2021 3.61302 10.2 2.08281H9.06667C9.06419 4.27248 7.28967 6.047 5.1 6.04948H4.53333V5.48281ZM4.53333 7.18281H5.1C7.01215 7.18026 8.76223 6.10834 9.63333 4.40615C10.2292 5.56144 11.2421 6.44692 12.4667 6.88305V13.4161H4.53333V7.18281ZM9.39873 14.5495L8.5 15.4482L7.60127 14.5495H9.39873ZM2.83333 10.0161C2.52039 10.0161 2.26667 9.76242 2.26667 9.44948C2.26667 9.13654 2.52039 8.88281 2.83333 8.88281H3.4V10.0161H2.83333ZM3.4 22.4828H1.13333V21.3495H3.4V22.4828ZM12.4667 22.4828H4.53333V21.3495H12.4667V22.4828ZM15.8667 22.4828H13.6V21.3495H15.8667V22.4828ZM15.8667 20.2161H13.6V17.9495H12.4667V20.2161H4.53333V17.9495H3.4V20.2161H1.13333V16.2495C1.13333 15.3106 1.89444 14.5495 2.83333 14.5495H5.99873L8.09937 16.6501C8.32065 16.8713 8.67935 16.8713 8.90063 16.6501L11.0013 14.5495H14.1667C15.1056 14.5495 15.8667 15.3106 15.8667 16.2495V20.2161ZM20.4 6.04948C20.0871 6.04948 19.8333 6.3032 19.8333 6.61615V9.44948C19.8345 10.029 19.9351 10.604 20.1308 11.1495H18.7V7.74948C18.7 4.30691 21.4908 1.51615 24.9333 1.51615C28.3759 1.51615 31.1667 4.30691 31.1667 7.74948V11.1495H29.7358C29.9315 10.604 30.0322 10.029 30.0333 9.44948V6.61615C30.0333 6.3032 29.7796 6.04948 29.4667 6.04948H26.4169L25.4433 4.09618C25.2763 3.8161 24.9139 3.72437 24.6338 3.8914C24.5496 3.94162 24.4792 4.01196 24.429 4.09618L23.4498 6.04948H20.4ZM20.9667 9.44948V7.18281H22.1V8.31614H23.2333V7.18281H23.8C24.0158 7.18402 24.2135 7.06247 24.31 6.86945L24.9333 5.61655L25.5567 6.86945C25.6531 7.06247 25.8508 7.18402 26.0667 7.18281H26.6333V8.31614H27.7667V7.18281H28.9V9.44948C28.9 11.6402 27.1241 13.4161 24.9333 13.4161C22.7426 13.4161 20.9667 11.6402 20.9667 9.44948ZM19.2667 22.4828H17V21.3495H19.2667V22.4828ZM29.4667 22.4828H20.4V21.3495H29.4667V22.4828ZM32.8667 22.4828H30.6V21.3495H32.8667V22.4828ZM32.8667 20.2161H30.6V17.9495H29.4667V20.2161H20.4V17.9495H19.2667V20.2161H17V16.2495C17 15.3106 17.7611 14.5495 18.7 14.5495H31.1667C32.1056 14.5495 32.8667 15.3106 32.8667 16.2495V20.2161Z" fill="#012F6B"/>
</svg>
