<svg width="34" height="34" viewBox="0 0 34 34" fill="none" xmlns="http://www.w3.org/2000/svg">
<g clip-path="url(#clip0_1261:29808)">
<path d="M29.6987 5.50599H26.8312V2.63857C26.8312 1.73731 26.0938 1 25.193 1H4.3011C3.39991 1 2.6626 1.73731 2.6626 2.63857V28.8554C2.6626 29.7566 3.39991 30.4939 4.30117 30.4939H7.16865V33.3614C7.16865 34.2626 7.90563 35 8.80723 35H22.7345C23.6353 35 24.9101 34.4945 25.5659 33.8772L30.1433 29.5686C30.7999 28.9513 31.3365 27.7085 31.3365 26.8073L31.3373 7.14469C31.3372 6.24336 30.5999 5.50599 29.6987 5.50599ZM7.16852 7.14462V29.265H4.3011C4.07911 29.265 3.89151 29.0774 3.89151 28.8554V2.63857C3.89151 2.41658 4.07911 2.22898 4.3011 2.22898H25.1931C25.4147 2.22898 25.6027 2.41658 25.6027 2.63857V5.50605H8.80709C7.9055 5.50605 7.16852 6.24336 7.16852 7.14462ZM29.301 28.6739L24.7236 32.9821C24.6299 33.0702 24.5078 33.1566 24.373 33.2389V29.4698C24.373 29.1884 24.4864 28.9352 24.6736 28.7468C24.8625 28.5596 25.1156 28.4458 25.3971 28.4458H29.4955C29.432 28.5321 29.3669 28.6116 29.301 28.6739ZM30.1075 26.8071C30.1075 26.9288 30.0853 27.0697 30.0517 27.2167H25.397C24.1538 27.2192 23.1465 28.2265 23.144 29.4698V33.7214C22.9978 33.7509 22.8568 33.7709 22.7344 33.7709H8.80709V33.771C8.58463 33.771 8.3975 33.5834 8.3975 33.3614V7.14456C8.3975 6.92256 8.5847 6.73497 8.80709 6.73497H29.6986C29.9206 6.73497 30.1082 6.92256 30.1082 7.14456L30.1075 26.8071Z" fill="#012F6B"/>
<path d="M25.1931 11.2402H13.3137C12.9741 11.2402 12.6992 11.5151 12.6992 11.8547C12.6992 12.1943 12.9741 12.4691 13.3137 12.4691H25.1931C25.5323 12.4691 25.8076 12.1943 25.8076 11.8547C25.8076 11.5151 25.5323 11.2402 25.1931 11.2402Z" fill="#012F6B"/>
<path d="M25.1931 19.4336H13.3137C12.9741 19.4336 12.6992 19.7084 12.6992 20.048C12.6992 20.3876 12.9741 20.6625 13.3137 20.6625H25.1931C25.5323 20.6625 25.8076 20.3876 25.8076 20.048C25.8076 19.7084 25.5323 19.4336 25.1931 19.4336Z" fill="#012F6B"/>
<path d="M19.8678 23.5293H13.3137C12.9741 23.5293 12.6992 23.8042 12.6992 24.1438C12.6992 24.4834 12.9741 24.7582 13.3137 24.7582H19.8678C20.207 24.7582 20.4819 24.4834 20.4819 24.1438C20.4819 23.8042 20.207 23.5293 19.8678 23.5293Z" fill="#012F6B"/>
<path d="M25.1931 15.3379H13.3137C12.9741 15.3379 12.6992 15.6127 12.6992 15.9523C12.6992 16.2919 12.9741 16.5668 13.3137 16.5668H25.1931C25.5323 16.5668 25.8076 16.2919 25.8076 15.9523C25.8076 15.6127 25.5323 15.3379 25.1931 15.3379Z" fill="#012F6B"/>
</g>
<defs>
<clipPath id="clip0_1261:29808">
<rect width="34" height="34" fill="white"/>
</clipPath>
</defs>
</svg>
