<svg width="30" height="30" viewBox="0 0 30 30" fill="none" xmlns="http://www.w3.org/2000/svg">
<path d="M15 0C6.7285 0 0 6.7285 0 15C0 23.2715 6.7285 30 15 30C23.2715 30 30 23.2703 30 15C30 6.72967 23.2715 0 15 0ZM15 27.6762C8.01123 27.6762 2.32377 21.9899 2.32377 15C2.32377 8.01006 8.01123 2.32377 15 2.32377C21.9888 2.32377 27.6762 8.01006 27.6762 15C27.6762 21.9899 21.9899 27.6762 15 27.6762Z" fill="#44C859"/>
<path d="M20.8099 13.7336H16.1623V9.08605C16.1623 8.44468 15.643 7.92413 15.0004 7.92413C14.3579 7.92413 13.8385 8.44468 13.8385 9.08605V13.7336H9.19097C8.54843 13.7336 8.02905 14.2541 8.02905 14.8955C8.02905 15.5369 8.54843 16.0574 9.19097 16.0574H13.8385V20.705C13.8385 21.3463 14.3579 21.8669 15.0004 21.8669C15.643 21.8669 16.1623 21.3463 16.1623 20.705V16.0574H20.8099C21.4524 16.0574 21.9718 15.5369 21.9718 14.8955C21.9718 14.2541 21.4524 13.7336 20.8099 13.7336Z" fill="#44C859"/>
</svg>
