<svg width="80" height="80" viewBox="0 0 80 80" fill="none" xmlns="http://www.w3.org/2000/svg">
<g clip-path="url(#clip0_1221:19010)">
<path fill-rule="evenodd" clip-rule="evenodd" d="M6.72689 67.7241C6.72689 64.5834 8.69313 61.9018 11.4618 60.8432C10.6448 60.5306 9.75785 60.3594 8.83091 60.3594C4.76382 60.3594 1.4668 63.6564 1.4668 67.7235C1.4668 70.7154 3.25098 73.2905 5.8134 74.443C5.72102 75.401 5.67484 76.1402 5.67484 76.1402H73.0039L76.16 72.4581C76.16 72.4581 12.8706 73.9296 7.59028 71.1871C7.03925 70.1549 6.72689 68.976 6.72689 67.7241Z" fill="#0ABBE2"/>
<path d="M77.5075 9.76437V33.8128C77.5075 35.9004 75.8144 37.5935 73.7268 37.5935H50.8126L47.7059 38.6948C47.6401 38.4647 47.6072 38.2017 47.6566 37.9387L48.7908 31.8074V9.7808C48.7908 7.69321 50.4839 6.00012 52.5714 6.00012H73.7268C75.8309 5.98368 77.5075 7.67677 77.5075 9.76437Z" fill="#0ABBE2"/>
<path d="M70.784 75.598H8.32051C4.32613 75.598 1.08789 72.3598 1.08789 68.3654C1.08789 64.3711 4.32613 61.1328 8.32051 61.1328H70.7676C74.7619 61.1328 78.0002 64.3711 78.0002 68.3654C78.0166 72.3598 74.7784 75.598 70.784 75.598Z" stroke="#012F6B" stroke-width="2.3" stroke-miterlimit="10"/>
<path d="M71.3436 37.5762V60.1151C71.3436 60.6674 70.8959 61.1151 70.3436 61.1151H8.63086C8.07858 61.1151 7.63086 60.6674 7.63086 60.1151V24.4727C7.63086 23.9204 8.07857 23.4727 8.63086 23.4727H42.8926C43.4448 23.4727 43.8926 23.9204 43.8926 24.4727V31.682C43.8926 31.743 43.887 31.8039 43.8759 31.8639L42.7583 37.905C42.5447 39.105 43.6953 40.0912 44.8295 39.6803L47.7061 38.6611L50.6507 37.6173C50.758 37.5792 50.871 37.5598 50.9849 37.5598H71.3272C71.3363 37.5598 71.3436 37.5672 71.3436 37.5762V37.5762Z" stroke="#012F6B" stroke-width="2.3" stroke-miterlimit="10"/>
<path d="M77.5076 9.76436V33.8128C77.5076 35.9004 75.8145 37.5935 73.7269 37.5935H50.8126L47.7059 38.6948L44.8293 39.714C43.6787 40.1249 42.528 39.1386 42.7581 37.9387L43.8923 31.8074V9.7808C43.8923 7.69321 45.5854 6.00012 47.673 6.00012H73.7433C75.8309 5.98368 77.5076 7.67677 77.5076 9.76436Z" stroke="#012F6B" stroke-width="2.3" stroke-miterlimit="10"/>
<path d="M31.3819 50.595V61.1316H16.1934V50.595C16.1934 48.5567 17.8536 46.8965 19.8919 46.8965H27.6998C29.7381 46.8965 31.3819 48.5567 31.3819 50.595Z" stroke="#012F6B" stroke-width="2.3" stroke-miterlimit="10"/>
<path d="M23.8222 46.8983C27.399 46.8983 30.2987 43.9987 30.2987 40.4218C30.2987 36.8449 27.399 33.9453 23.8222 33.9453C20.2453 33.9453 17.3457 36.8449 17.3457 40.4218C17.3457 43.9987 20.2453 46.8983 23.8222 46.8983Z" stroke="#012F6B" stroke-width="2.3" stroke-miterlimit="10"/>
<path d="M54 17H70" stroke="#012F6B" stroke-width="2.3" stroke-linecap="round" stroke-linejoin="round"/>
<path d="M54 24H61" stroke="#012F6B" stroke-width="2.3" stroke-linecap="round" stroke-linejoin="round"/>
</g>
<defs>
<clipPath id="clip0_1221:19010">
<rect width="80" height="80" fill="white"/>
</clipPath>
</defs>
</svg>
