<svg width="30" height="31" viewBox="0 0 30 31" fill="none" xmlns="http://www.w3.org/2000/svg">
<path d="M24.6923 3.75H19.6154V2.8125C19.6154 1.25918 18.3756 0 16.8462 0H13.1538C11.6244 0 10.3846 1.25918 10.3846 2.8125V3.75H5.30769C4.03321 3.75 3 4.79936 3 6.09375V7.96875C3 8.48654 3.41325 8.90625 3.92308 8.90625H26.0769C26.5868 8.90625 27 8.48654 27 7.96875V6.09375C27 4.79936 25.9668 3.75 24.6923 3.75ZM12.2308 2.8125C12.2308 2.2957 12.645 1.875 13.1538 1.875H16.8462C17.355 1.875 17.7692 2.2957 17.7692 2.8125V3.75H12.2308V2.8125Z" fill="#EF5063"/>
<path d="M4.75134 10.7812C4.58663 10.7812 4.45538 10.9211 4.46322 11.0882L5.22476 27.3211C5.29515 28.8234 6.51015 30 7.99053 30H22.0086C23.489 30 24.704 28.8234 24.7744 27.3211L25.5359 11.0882C25.5438 10.9211 25.4125 10.7812 25.2478 10.7812H4.75134ZM18.6919 13.125C18.6919 12.607 19.105 12.1875 19.615 12.1875C20.125 12.1875 20.538 12.607 20.538 13.125V25.3125C20.538 25.8305 20.125 26.25 19.615 26.25C19.105 26.25 18.6919 25.8305 18.6919 25.3125V13.125ZM14.0765 13.125C14.0765 12.607 14.4896 12.1875 14.9996 12.1875C15.5096 12.1875 15.9227 12.607 15.9227 13.125V25.3125C15.9227 25.8305 15.5096 26.25 14.9996 26.25C14.4896 26.25 14.0765 25.8305 14.0765 25.3125V13.125ZM9.46111 13.125C9.46111 12.607 9.87419 12.1875 10.3842 12.1875C10.8942 12.1875 11.3073 12.607 11.3073 13.125V25.3125C11.3073 25.8305 10.8942 26.25 10.3842 26.25C9.87419 26.25 9.46111 25.8305 9.46111 25.3125V13.125Z" fill="#EF5063"/>
</svg>
