<svg width="80" height="80" viewBox="0 0 80 80" fill="none" xmlns="http://www.w3.org/2000/svg">
<circle cx="40" cy="40" r="38" stroke="#C0CAD6" stroke-width="4"/>
<path d="M57.9132 40.6767C57.5092 36.6127 55.6936 32.7814 52.8007 29.8885C50.3285 27.4163 47.3026 25.8277 44.1186 25.1213V22.8881C45.419 22.5646 46.3857 21.3875 46.3857 19.9883C46.3857 18.3405 45.0451 17 43.3973 17H37.0691C35.4213 17 34.0808 18.3405 34.0808 19.9883C34.0808 21.3874 35.0474 22.5645 36.3478 22.8881V25.1275C33.1736 25.8369 30.1576 27.4234 27.6925 29.8886C27.153 30.428 26.6555 30.994 26.2001 31.5822C26.1781 31.5805 26.156 31.5788 26.1335 31.5788H19.8702C19.3849 31.5788 18.9913 31.9723 18.9913 32.4577C18.9913 32.9432 19.3849 33.3367 19.8702 33.3367H25.0042C24.3598 34.4155 23.8402 35.5485 23.4446 36.7149H13.8789C13.3936 36.7149 13 37.1084 13 37.5938C13 38.0792 13.3936 38.4727 13.8789 38.4727H22.948C22.6947 39.5846 22.5493 40.7162 22.5118 41.851H18.6251C18.1397 41.851 17.7462 42.2445 17.7462 42.7299C17.7462 43.2154 18.1397 43.6088 18.6251 43.6088H22.5398C22.614 44.7465 22.7969 45.8782 23.0886 46.9871H17.3946C16.9093 46.9871 16.5157 47.3806 16.5157 47.8661C16.5157 48.3515 16.9093 48.745 17.3946 48.745H23.6495C24.5117 51.0259 25.8592 53.1637 27.6925 54.9969C30.5881 57.8926 34.4234 59.7086 38.4916 60.1106C39.0722 60.1679 39.6532 60.1963 40.2335 60.1963C43.6632 60.1963 47.0493 59.2037 49.9225 57.3326C50.3293 57.0677 50.4443 56.5232 50.1794 56.1165C49.9145 55.7097 49.37 55.5947 48.9633 55.8596C42.674 59.9551 34.251 59.0696 28.9354 53.7539C22.6984 47.517 22.6984 37.3687 28.9354 31.1316C35.1723 24.8947 45.3206 24.8947 51.5577 31.1316C56.8663 36.4403 57.7566 44.856 53.6746 51.1422C53.4103 51.5494 53.526 52.0938 53.933 52.358C54.3403 52.6224 54.8846 52.5067 55.1488 52.0996C57.3298 48.7408 58.3116 44.6841 57.9132 40.6767ZM35.8386 19.9884C35.8386 19.3099 36.3906 18.7579 37.0691 18.7579H43.3973C44.0759 18.7579 44.6278 19.3099 44.6278 19.9884C44.6278 20.6669 44.0759 21.2189 43.3973 21.2189H43.2397H37.2267H37.0691C36.3906 21.2189 35.8386 20.6669 35.8386 19.9884ZM38.1056 24.8254V22.9767H42.3607V24.8222C40.9478 24.6542 39.5183 24.6552 38.1056 24.8254Z" fill="#C0CAD6"/>
<path d="M52.1797 53.498C51.9477 53.498 51.7218 53.5921 51.5584 53.7556C51.394 53.919 51.3008 54.1458 51.3008 54.377C51.3008 54.6081 51.394 54.8349 51.5584 54.9983C51.7218 55.1627 51.9477 55.2559 52.1797 55.2559C52.4108 55.2559 52.6367 55.1627 52.8011 54.9983C52.9646 54.8349 53.0586 54.6081 53.0586 54.377C53.0586 54.1458 52.9646 53.919 52.8011 53.7556C52.6367 53.5921 52.4108 53.498 52.1797 53.498Z" fill="#C0CAD6"/>
<path d="M40.2459 28.8086C32.7278 28.8086 26.6113 34.925 26.6113 42.4432C26.6113 49.9614 32.7278 56.0778 40.2459 56.0778C47.764 56.0778 53.8805 49.9614 53.8805 42.4432C53.8805 34.925 47.764 28.8086 40.2459 28.8086ZM40.2459 54.3199C33.697 54.3199 28.3692 48.992 28.3692 42.4432C28.3692 35.8944 33.697 30.5664 40.2459 30.5664C46.7948 30.5664 52.1227 35.8944 52.1227 42.4432C52.1227 48.992 46.7948 54.3199 40.2459 54.3199Z" fill="#C0CAD6"/>
<path d="M45.8076 35.6402L41.4543 39.9934C41.0903 39.8134 40.6808 39.7117 40.2479 39.7117C39.815 39.7117 39.4056 39.8134 39.0415 39.9934L37.0932 38.0451C36.7499 37.7019 36.1936 37.7019 35.8502 38.0451C35.507 38.3883 35.507 38.9449 35.8502 39.2881L37.7985 41.2364C37.6184 41.6004 37.5168 42.0099 37.5168 42.4428C37.5168 43.9487 38.7419 45.174 40.2479 45.174C41.754 45.174 42.9791 43.9487 42.9791 42.4428C42.9791 42.0099 42.8774 41.6004 42.6974 41.2364L46.9229 37.0109L47.0506 36.8832C47.3938 36.54 47.3938 35.9834 47.0506 35.6402C46.7074 35.297 46.151 35.297 45.8076 35.6402ZM40.2479 43.4162C39.7113 43.4162 39.2746 42.9796 39.2746 42.4429C39.2746 41.9062 39.7113 41.4696 40.2479 41.4696C40.7846 41.4696 41.2213 41.9062 41.2213 42.4429C41.2213 42.9796 40.7846 43.4162 40.2479 43.4162Z" fill="#C0CAD6"/>
<path d="M49.6444 41.5762H48.8301C48.3447 41.5762 47.9512 41.9697 47.9512 42.4551C47.9512 42.9405 48.3447 43.334 48.8301 43.334H49.6444C50.1297 43.334 50.5233 42.9405 50.5233 42.4551C50.5233 41.9697 50.1297 41.5762 49.6444 41.5762Z" fill="#C0CAD6"/>
<path d="M31.6638 41.5527H30.8496C30.3643 41.5527 29.9707 41.9462 29.9707 42.4316C29.9707 42.9171 30.3643 43.3105 30.8496 43.3105H31.6638C32.1492 43.3105 32.5427 42.9171 32.5427 42.4316C32.5427 41.9462 32.1492 41.5527 31.6638 41.5527Z" fill="#C0CAD6"/>
<path d="M40.2578 34.742C40.7431 34.742 41.1367 34.3485 41.1367 33.863V33.0488C41.1367 32.5634 40.7431 32.1699 40.2578 32.1699C39.7725 32.1699 39.3789 32.5634 39.3789 33.0488V33.863C39.3789 34.3485 39.7725 34.742 40.2578 34.742Z" fill="#C0CAD6"/>
<path d="M40.2363 50.1484C39.751 50.1484 39.3574 50.5419 39.3574 51.0273V51.8416C39.3574 52.327 39.751 52.7205 40.2363 52.7205C40.7217 52.7205 41.1152 52.327 41.1152 51.8416V51.0273C41.1152 50.5419 40.7217 50.1484 40.2363 50.1484Z" fill="#C0CAD6"/>
<path d="M13.8789 46.9883C13.6478 46.9883 13.421 47.0823 13.2575 47.2458C13.094 47.4093 13 47.636 13 47.8672C13 48.0992 13.094 48.3251 13.2575 48.4886C13.4211 48.6521 13.6478 48.7461 13.8789 48.7461C14.1101 48.7461 14.3368 48.6521 14.5002 48.4886C14.6637 48.3251 14.7578 48.0983 14.7578 47.8672C14.7578 47.636 14.6638 47.4093 14.5002 47.2458C14.3368 47.0823 14.1101 46.9883 13.8789 46.9883Z" fill="#C0CAD6"/>
</svg>
