<svg width="37" height="39" viewBox="0 0 37 39" fill="none" xmlns="http://www.w3.org/2000/svg">
<path d="M36.5164 14.2037C35.8741 13.5708 34.8355 13.5736 34.1966 14.2099L14.4781 33.8501C11.9198 36.3845 7.76485 36.3845 5.20184 33.8467C2.64075 31.3082 2.64075 27.192 5.20215 24.6545L25.5044 4.43605C27.1016 2.85385 29.6983 2.85385 31.3001 4.43948C32.9014 6.02587 32.9014 8.59803 31.2997 10.1849L14.4811 26.8463C14.4801 26.8474 14.4791 26.8486 14.4781 26.8497C13.8373 27.4809 12.8018 27.4801 12.1624 26.8466C11.5219 26.2121 11.5219 25.1837 12.1624 24.5492L20.2806 16.5051C20.9211 15.8704 20.921 14.8414 20.2803 14.2069C19.6397 13.5724 18.601 13.5725 17.9605 14.2072L9.84245 22.2511C7.92086 24.1547 7.92086 27.241 9.8426 29.1447C11.7643 31.0485 14.8796 31.0485 16.8013 29.1447C16.8036 29.1425 16.8053 29.1402 16.8075 29.138L33.6194 12.4829C36.5024 9.62683 36.5024 4.99684 33.6194 2.14078C30.7361 -0.713595 26.0628 -0.713595 23.1815 2.14078L2.87927 22.3594C-0.960216 26.1631 -0.960216 32.3366 2.88203 36.1449C6.72682 39.9518 12.9585 39.9518 16.801 36.1452L36.5227 16.5019C37.1616 15.8655 37.1587 14.8366 36.5164 14.2037Z" fill="#0ABBE2"/>
</svg>
