<svg width="20" height="20" viewBox="0 0 20 20" fill="none" xmlns="http://www.w3.org/2000/svg">
<path d="M19.307 2.90547L17.9852 3.93906C16.1828 1.63516 13.3797 0.15625 10.232 0.15625C4.79688 0.15625 0.397665 4.55078 0.390633 9.98828C0.383602 15.4305 4.7922 19.8438 10.232 19.8438C14.4813 19.8438 18.1024 17.1484 19.4805 13.3727C19.5156 13.2742 19.4641 13.1641 19.3656 13.1312L18.0367 12.6742C17.9904 12.6583 17.9397 12.6612 17.8954 12.6822C17.8512 12.7033 17.817 12.7408 17.8 12.7867C17.7578 12.9039 17.7109 13.0211 17.6617 13.1359C17.2563 14.0969 16.675 14.9594 15.9344 15.7C15.1997 16.436 14.3299 17.0233 13.3727 17.4297C12.3813 17.8492 11.3242 18.0625 10.2367 18.0625C9.14688 18.0625 8.0922 17.8492 7.10079 17.4297C6.14261 17.0251 5.27248 16.4375 4.53907 15.7C3.80243 14.9654 3.21575 14.0946 2.81173 13.1359C2.3922 12.1422 2.17891 11.0875 2.17891 9.99766C2.17891 8.90781 2.3922 7.85313 2.81173 6.85938C3.2172 5.89844 3.79845 5.03594 4.53907 4.29531C5.2797 3.55469 6.1422 2.97344 7.10079 2.56563C8.0922 2.14609 9.14923 1.93281 10.2367 1.93281C11.3266 1.93281 12.3813 2.14609 13.3727 2.56563C14.3308 2.97026 15.201 3.55778 15.9344 4.29531C16.1664 4.52734 16.3844 4.77344 16.5859 5.03125L15.175 6.13281C15.1471 6.15441 15.1258 6.18344 15.1137 6.21658C15.1015 6.24972 15.099 6.28562 15.1063 6.32014C15.1137 6.35466 15.1306 6.38641 15.1552 6.41173C15.1798 6.43705 15.211 6.45492 15.2453 6.46328L19.3609 7.47109C19.4781 7.49922 19.593 7.41016 19.593 7.29062L19.6117 3.05078C19.6094 2.89609 19.4289 2.80938 19.307 2.90547Z" fill="#2585C2"/>
</svg>
