<svg width="30" height="30" viewBox="0 0 30 30" fill="none" xmlns="http://www.w3.org/2000/svg">
<circle cx="15" cy="15" r="15" fill="#44C859"/>
<path d="M20.8121 13.7333H16.1645V9.08574C16.1645 8.44437 15.6452 7.92383 15.0026 7.92383C14.3601 7.92383 13.8407 8.44437 13.8407 9.08574V13.7333H9.19316C8.55063 13.7333 8.03125 14.2538 8.03125 14.8952C8.03125 15.5366 8.55063 16.0571 9.19316 16.0571H13.8407V20.7047C13.8407 21.346 14.3601 21.8666 15.0026 21.8666C15.6452 21.8666 16.1645 21.346 16.1645 20.7047V16.0571H20.8121C21.4546 16.0571 21.974 15.5366 21.974 14.8952C21.974 14.2538 21.4546 13.7333 20.8121 13.7333Z" fill="white"/>
</svg>
