<svg width="25" height="25" viewBox="0 0 25 25" fill="none" xmlns="http://www.w3.org/2000/svg">
<path d="M9.33352 14.844C8.56892 14.8441 7.82147 14.6174 7.18571 14.1927C6.54994 13.7679 6.05442 13.1641 5.7618 12.4577C5.46919 11.7514 5.39264 10.974 5.54183 10.2241C5.69101 9.47423 6.05924 8.78541 6.59993 8.24479L10.589 4.25729C11.314 3.5323 12.2973 3.125 13.3226 3.125C14.3479 3.125 15.3312 3.5323 16.0562 4.25729C16.7812 4.98229 17.1885 5.96559 17.1885 6.99089C17.1885 8.01618 16.7812 8.99949 16.0562 9.72448L15.6241 10.1557L14.5187 9.05182L14.9538 8.61667C15.3842 8.18423 15.6256 7.59878 15.625 6.98868C15.6244 6.37857 15.3819 5.79359 14.9507 5.36198C14.5118 4.94314 13.9285 4.70945 13.3218 4.70945C12.7151 4.70945 12.1318 4.94314 11.6929 5.36198L7.7054 9.34948C7.49134 9.56331 7.32152 9.81723 7.20565 10.0967C7.08979 10.3762 7.03015 10.6758 7.03015 10.9784C7.03015 11.281 7.08979 11.5805 7.20565 11.86C7.32152 12.1395 7.49134 12.3935 7.7054 12.6073C8.14428 13.0261 8.72764 13.2598 9.3343 13.2598C9.94097 13.2598 10.5243 13.0261 10.9632 12.6073L12.0679 13.712C11.7096 14.0721 11.2834 14.3575 10.8141 14.5518C10.3447 14.7461 9.8415 14.8454 9.33352 14.844Z" fill="#012F6B"/>
<path d="M15.5835 13.2815C14.8189 13.2816 14.0715 13.0549 13.4357 12.6302C12.7999 12.2054 12.3044 11.6016 12.0118 10.8952C11.7192 10.1889 11.6426 9.41155 11.7918 8.66164C11.941 7.91173 12.3092 7.22291 12.8499 6.68229L13.282 6.25104L14.3866 7.35651L13.9554 7.78776C13.5235 8.21968 13.2809 8.80547 13.2809 9.41628C13.2809 10.0271 13.5235 10.6129 13.9554 11.0448C14.3943 11.4636 14.9776 11.6973 15.5843 11.6973C16.191 11.6973 16.7743 11.4636 17.2132 11.0448L21.2015 7.05651C21.6326 6.62432 21.8747 6.03881 21.8747 5.42839C21.8747 4.81796 21.6326 4.23245 21.2015 3.80026C20.7626 3.38142 20.1793 3.14773 19.5726 3.14773C18.9659 3.14773 18.3826 3.38142 17.9437 3.80026L16.839 2.69479C17.564 1.9698 18.5473 1.5625 19.5726 1.5625C20.5979 1.5625 21.5812 1.9698 22.3062 2.69479C23.0312 3.41979 23.4385 4.40309 23.4385 5.42839C23.4385 6.45368 23.0312 7.43699 22.3062 8.16198L18.3187 12.1487C17.9604 12.5089 17.5342 12.7944 17.0649 12.9888C16.5956 13.1833 16.0923 13.2828 15.5843 13.2815H15.5835Z" fill="#012F6B"/>
<path d="M18.75 23.4375H3.125C2.71073 23.4371 2.31354 23.2723 2.0206 22.9794C1.72767 22.6865 1.56291 22.2893 1.5625 21.875V6.25C1.56291 5.83573 1.72767 5.43854 2.0206 5.1456C2.31354 4.85267 2.71073 4.68791 3.125 4.6875H6.25V6.25H3.125V21.875H18.75V14.0625H20.3125V21.875C20.3121 22.2893 20.1473 22.6865 19.8544 22.9794C19.5615 23.2723 19.1643 23.4371 18.75 23.4375Z" fill="#012F6B"/>
</svg>
