<svg width="80" height="80" viewBox="0 0 80 80" fill="none" xmlns="http://www.w3.org/2000/svg">
<circle cx="40" cy="40" r="38.5" stroke="#C0CAD6" stroke-width="3"/>
<path d="M40.0009 22C32.1753 22 25.8086 28.3666 25.8086 36.1923C25.8086 41.0694 28.2816 45.3795 32.0393 47.9353V56.9615C32.0393 57.3139 32.218 57.6423 32.5139 57.8335C32.8097 58.0248 33.1825 58.0529 33.5039 57.9085L40.0009 54.9849L46.4978 57.9085C46.6339 57.9697 46.7791 58 46.9239 58C47.121 58 47.3172 57.9439 47.4878 57.8336C47.7837 57.6423 47.9624 57.3139 47.9624 56.9616V47.9353C51.7202 45.3795 54.1932 41.0695 54.1932 36.1924C54.1932 28.3666 47.8265 22 40.0009 22ZM45.8855 55.3555L40.427 52.8993C40.2915 52.8382 40.1462 52.8077 40.0009 52.8077C39.8556 52.8077 39.7103 52.8381 39.5748 52.8992L34.1163 55.3555V49.1093C34.6382 49.3472 35.1739 49.5517 35.7198 49.7241C35.7507 49.734 35.7816 49.744 35.8127 49.7536C35.8823 49.7751 35.9522 49.7957 36.0222 49.816C36.074 49.8312 36.1258 49.8463 36.1778 49.8609C36.2342 49.8767 36.2909 49.8919 36.3476 49.907C36.4137 49.9246 36.4799 49.9418 36.5464 49.9586C36.5933 49.9703 36.6404 49.9818 36.6875 49.993C36.7639 50.0114 36.8406 50.0291 36.9175 50.0462C36.9573 50.055 36.9973 50.0638 37.0372 50.0723C37.1215 50.0903 37.206 50.1074 37.2908 50.1239C37.3254 50.1306 37.3599 50.1374 37.3945 50.1438C37.4843 50.1606 37.5745 50.1763 37.665 50.1913C37.696 50.1965 37.727 50.2019 37.7581 50.2068C37.8514 50.2217 37.9451 50.2354 38.0391 50.2484C38.0682 50.2524 38.0972 50.2568 38.1264 50.2606C38.2215 50.2732 38.317 50.2845 38.4127 50.2952C38.4412 50.2984 38.4696 50.302 38.4982 50.3051C38.5936 50.3152 38.6894 50.3238 38.7853 50.332C38.8144 50.3345 38.8434 50.3375 38.8726 50.3397C38.9672 50.3472 39.0621 50.3532 39.1573 50.3588C39.1878 50.3606 39.2182 50.363 39.2488 50.3646C39.3449 50.3697 39.4414 50.3731 39.538 50.3762C39.5671 50.3772 39.596 50.3788 39.6251 50.3795C39.75 50.3828 39.8753 50.3846 40.001 50.3846C40.1267 50.3846 40.252 50.3828 40.3769 50.3795C40.406 50.3788 40.4349 50.3772 40.464 50.3762C40.5606 50.3731 40.657 50.3696 40.7532 50.3646C40.7837 50.363 40.8141 50.3606 40.8447 50.3588C40.9398 50.3532 41.0348 50.3473 41.1294 50.3397C41.1586 50.3375 41.1876 50.3345 41.2167 50.332C41.3126 50.3238 41.4084 50.3151 41.5038 50.3051C41.5324 50.302 41.5608 50.2985 41.5893 50.2952C41.685 50.2845 41.7805 50.2732 41.8756 50.2606C41.9048 50.2568 41.9338 50.2525 41.9629 50.2484C42.0568 50.2354 42.1506 50.2217 42.2439 50.2068C42.275 50.2018 42.3059 50.1964 42.337 50.1913C42.4274 50.1763 42.5177 50.1606 42.6075 50.1438C42.6421 50.1374 42.6766 50.1306 42.7112 50.1239C42.796 50.1074 42.8805 50.0903 42.9648 50.0723C43.0048 50.0638 43.0446 50.055 43.0845 50.0462C43.1614 50.0291 43.2381 50.0114 43.3145 49.993C43.3615 49.9818 43.4086 49.9702 43.4556 49.9586C43.5221 49.9419 43.5882 49.9247 43.6544 49.907C43.7111 49.8918 43.7677 49.8767 43.8242 49.8609C43.8762 49.8463 43.9281 49.8312 43.9798 49.816C44.0498 49.7957 44.1197 49.7751 44.1893 49.7536C44.2204 49.744 44.2513 49.7339 44.2822 49.7241C44.8281 49.5517 45.3638 49.3473 45.8857 49.1093V55.3555H45.8855ZM43.9545 47.6447C43.9131 47.6589 43.8717 47.6733 43.8301 47.6871C43.767 47.7082 43.7035 47.729 43.6399 47.749C43.5659 47.7723 43.4916 47.7947 43.4172 47.8165C43.3646 47.832 43.312 47.8474 43.2592 47.8621C43.1607 47.8896 43.0619 47.9159 42.9627 47.9409C42.9257 47.9502 42.8886 47.9591 42.8515 47.9681C42.7544 47.9916 42.6569 48.0139 42.5591 48.035C42.5345 48.0404 42.5101 48.046 42.4855 48.0511C42.3594 48.0774 42.2328 48.102 42.1058 48.1243C42.0928 48.1265 42.0798 48.1285 42.0668 48.1308C41.9523 48.1506 41.8375 48.1685 41.7225 48.1849C41.6965 48.1886 41.6706 48.1922 41.6445 48.1958C41.5218 48.2125 41.3989 48.2278 41.2756 48.2408C41.2709 48.2413 41.2663 48.2419 41.2617 48.2424C41.1326 48.2558 41.003 48.2669 40.8733 48.2761C40.8451 48.2781 40.8169 48.2796 40.7887 48.2815C40.6878 48.288 40.5869 48.2931 40.4857 48.2972C40.4513 48.2986 40.4169 48.3 40.3825 48.3012C40.2555 48.305 40.1283 48.3077 40.0009 48.3077C39.8735 48.3077 39.7463 48.3051 39.6192 48.301C39.5848 48.3 39.5504 48.2985 39.5161 48.2971C39.4149 48.2931 39.314 48.2879 39.2131 48.2813C39.1849 48.2795 39.1567 48.278 39.1285 48.2759C38.9988 48.2666 38.8693 48.2556 38.7401 48.2422C38.7355 48.2417 38.7308 48.2411 38.7262 48.2406C38.6029 48.2277 38.48 48.2124 38.3573 48.1957C38.3313 48.1922 38.3054 48.1885 38.2794 48.1847C38.1643 48.1683 38.0494 48.1504 37.935 48.1307C37.922 48.1285 37.909 48.1264 37.896 48.1241C37.769 48.1018 37.6423 48.0772 37.5163 48.0509C37.4917 48.0458 37.4673 48.0401 37.4426 48.0349C37.3449 48.0139 37.2474 47.9914 37.1503 47.968C37.1132 47.959 37.076 47.9501 37.0391 47.9407C36.9399 47.9159 36.841 47.8894 36.7425 47.862C36.6897 47.8472 36.6371 47.8318 36.5846 47.8164C36.5102 47.7945 36.4359 47.7721 36.3618 47.7489C36.2982 47.7288 36.2348 47.7081 36.1716 47.687C36.13 47.6731 36.0886 47.6588 36.0472 47.6445C31.3022 46.0019 27.8855 41.4889 27.8855 36.1923C27.8855 29.5119 33.3204 24.0769 40.0009 24.0769C46.6814 24.0769 52.1163 29.5118 52.1163 36.1923C52.1163 41.4889 48.6995 46.0019 43.9545 47.6447Z" fill="#C0CAD6"/>
<path d="M46.1616 36.1918L48.1122 32.5257C48.2805 32.2095 48.2738 31.8289 48.0947 31.5187C47.9156 31.2086 47.5893 31.0125 47.2313 31.0001L43.0812 30.8563L40.8815 27.3341C40.6917 27.0303 40.3589 26.8457 40.0007 26.8457C39.6425 26.8457 39.3097 27.0303 39.1199 27.3341L36.9203 30.8563L32.7701 31.0001C32.4121 31.0125 32.0858 31.2086 31.9067 31.5187C31.7276 31.8289 31.721 32.2095 31.8893 32.5257L33.8398 36.1918L31.8893 39.8579C31.721 40.1741 31.7276 40.5547 31.9067 40.8648C32.0858 41.175 32.4121 41.3711 32.7701 41.3834L36.9203 41.5272L39.1199 45.0495C39.3096 45.3532 39.6425 45.5379 40.0007 45.5379C40.3589 45.5379 40.6917 45.3532 40.8815 45.0495L43.0811 41.5272L47.2313 41.3834C47.5892 41.3711 47.9156 41.175 48.0946 40.8648C48.2737 40.5547 48.2804 40.1741 48.1121 39.8579L46.1616 36.1918ZM42.4571 39.4707C42.1119 39.4826 41.7951 39.6655 41.6123 39.9585L40.0007 42.539L38.3892 39.9586C38.2062 39.6656 37.8896 39.4828 37.5444 39.4707L34.5039 39.3653L35.9329 36.6795C36.0952 36.3746 36.0952 36.009 35.9329 35.704L34.5039 33.0182L37.5444 32.9128C37.8896 32.9009 38.2063 32.718 38.3892 32.425L40.0007 29.8446L41.6122 32.4251C41.7951 32.7181 42.1118 32.9009 42.457 32.9129L45.4974 33.0183L44.0685 35.7041C43.9063 36.009 43.9063 36.3747 44.0686 36.6796L45.4975 39.3654L42.4571 39.4707Z" fill="#C0CAD6"/>
</svg>
