<svg width="14" height="18" viewBox="0 0 14 18" fill="none" xmlns="http://www.w3.org/2000/svg">
<path d="M12.8336 15.6667H1.16691C0.9459 15.6667 0.733939 15.7545 0.577658 15.9108C0.421378 16.0671 0.333581 16.279 0.333581 16.5C0.333581 16.7211 0.421378 16.933 0.577658 17.0893C0.733939 17.2456 0.9459 17.3334 1.16691 17.3334H12.8336C13.0546 17.3334 13.2666 17.2456 13.4228 17.0893C13.5791 16.933 13.6669 16.7211 13.6669 16.5C13.6669 16.279 13.5791 16.0671 13.4228 15.9108C13.2666 15.7545 13.0546 15.6667 12.8336 15.6667ZM1.16691 14H1.24191L4.71691 13.6834C5.09758 13.6455 5.45361 13.4777 5.72525 13.2084L13.2252 5.70838C13.5163 5.40085 13.6737 4.99047 13.6627 4.56716C13.6518 4.14385 13.4735 3.74213 13.1669 3.45004L10.8836 1.16671C10.5856 0.886791 10.1951 0.726177 9.78636 0.715421C9.37764 0.704665 8.97923 0.844519 8.66692 1.10838L1.16691 8.60838C0.897552 8.88001 0.729834 9.23605 0.691914 9.61671L0.333581 13.0917C0.322355 13.2138 0.338193 13.3368 0.379965 13.452C0.421737 13.5673 0.488416 13.6719 0.575247 13.7584C0.653114 13.8356 0.745461 13.8967 0.846992 13.9382C0.948523 13.9797 1.05724 14.0007 1.16691 14ZM9.72525 2.33338L12.0002 4.60838L10.3336 6.23338L8.10025 4.00004L9.72525 2.33338Z" fill="#012F6B"/>
</svg>
