<svg width="13" height="15" viewBox="0 0 13 15" fill="none" xmlns="http://www.w3.org/2000/svg">
<g clip-path="url(#clip0_695:28068)">
<path d="M2.1875 4.0625V6.25H1.25C0.918479 6.25 0.600537 6.3817 0.366117 6.61612C0.131696 6.85054 0 7.16848 0 7.5L0 13.75C0 14.0815 0.131696 14.3995 0.366117 14.6339C0.600537 14.8683 0.918479 15 1.25 15H11.25C11.5815 15 11.8995 14.8683 12.1339 14.6339C12.3683 14.3995 12.5 14.0815 12.5 13.75V7.5C12.5 7.16848 12.3683 6.85054 12.1339 6.61612C11.8995 6.3817 11.5815 6.25 11.25 6.25H10.3125V4.0625C10.3125 2.98506 9.88449 1.95175 9.12262 1.18988C8.36075 0.428012 7.32744 0 6.25 0C5.17256 0 4.13925 0.428012 3.37738 1.18988C2.61551 1.95175 2.1875 2.98506 2.1875 4.0625ZM3.75 6.25V4.0625C3.75 3.39946 4.01339 2.76357 4.48223 2.29473C4.95107 1.82589 5.58696 1.5625 6.25 1.5625C6.91304 1.5625 7.54893 1.82589 8.01777 2.29473C8.48661 2.76357 8.75 3.39946 8.75 4.0625V6.25H3.75ZM5 9.6875C5.00005 9.47095 5.05635 9.25813 5.16339 9.06988C5.27043 8.88164 5.42454 8.72443 5.61062 8.61367C5.7967 8.5029 6.00836 8.44238 6.22486 8.43802C6.44137 8.43367 6.65529 8.48563 6.84567 8.58883C7.03605 8.69202 7.19636 8.84291 7.31089 9.02669C7.42541 9.21048 7.49022 9.42087 7.49898 9.63724C7.50773 9.85361 7.46012 10.0685 7.36082 10.261C7.26152 10.4534 7.11392 10.6168 6.9325 10.735L6.9275 10.7381C6.9275 10.7381 7.04937 11.4756 7.18687 12.3444V12.345C7.18687 12.4692 7.13755 12.5882 7.04976 12.676C6.96197 12.7638 6.8429 12.8131 6.71875 12.8131H5.78C5.65585 12.8131 5.53678 12.7638 5.44899 12.676C5.3612 12.5882 5.31187 12.4692 5.31187 12.345V12.3444L5.57125 10.7381C5.39576 10.6248 5.25143 10.4694 5.15143 10.286C5.05143 10.1025 4.99894 9.89702 4.99875 9.68813L5 9.6875Z" fill="white"/>
</g>
<defs>
<clipPath id="clip0_695:28068">
<rect width="12.5" height="15" fill="white"/>
</clipPath>
</defs>
</svg>
