<svg width="80" height="80" viewBox="0 0 80 80" fill="none" xmlns="http://www.w3.org/2000/svg">
<path d="M68.6663 15.3359V78.0026H25.333V68.9663C25.333 43.1527 43.7497 21.4656 68.6663 15.3359Z" fill="#0ABBE2"/>
<path d="M67.6667 10.668C68.219 10.668 68.6667 11.1157 68.6667 11.668V77.0013C68.6667 77.5536 68.219 78.0013 67.6667 78.0013H13C12.4477 78.0013 12 77.5536 12 77.0013V11.668C12 11.1157 12.4477 10.668 13 10.668H26.5774C27.1297 10.668 27.5774 11.1157 27.5774 11.668V13.7683C27.5774 14.3206 28.0252 14.7683 28.5774 14.7683H52.9381C53.4903 14.7683 53.9381 14.3206 53.9381 13.7683V11.668C53.9381 11.1157 54.3858 10.668 54.9381 10.668H67.6667Z" stroke="#012F6B" stroke-width="2.3" stroke-miterlimit="10"/>
<path d="M52.9997 2.66797H28.333C27.7807 2.66797 27.333 3.11568 27.333 3.66797V14.3346C27.333 14.8869 27.7807 15.3346 28.333 15.3346H52.9997C53.552 15.3346 53.9997 14.8869 53.9997 14.3346V3.66797C53.9997 3.11568 53.552 2.66797 52.9997 2.66797Z" fill="white" stroke="#012F6B" stroke-width="2.3" stroke-miterlimit="10"/>
<path d="M27.25 46.3301L35.6835 54.7636C36.074 55.1541 36.7072 55.1541 37.0977 54.7636L54.1094 37.752" stroke="#012F6B" stroke-width="2.3" stroke-miterlimit="10" stroke-linecap="round"/>
</svg>
