<svg width="80" height="80" viewBox="0 0 80 80" fill="none" xmlns="http://www.w3.org/2000/svg">
<path fill-rule="evenodd" clip-rule="evenodd" d="M49.5977 70.5849C51.0844 74.9 55.1803 78.0001 60.0003 78.0001H66.0003C72.0755 78.0001 77.0003 73.0752 77.0003 67.0001V55.5063C77.0003 52.7094 74.3719 50.6572 71.6585 51.3356C71.5712 51.3574 71.4833 51.3764 71.395 51.3927C71.7873 52.523 72.0004 53.7371 72.0004 55.0009V61.0009C72.0004 67.076 67.0756 72.0009 61.0004 72.0009H55.0004C53.0369 72.0009 51.1935 71.4864 49.5977 70.5849Z" fill="#0ABBE2"/>
<path d="M63.5 14V31.5C63.5 32.0523 63.0523 32.5 62.5 32.5H56.8152C56.6101 32.5 56.4098 32.5631 56.2418 32.6808L51.6667 35.8833C51.5567 35.9603 51.4633 36.0587 51.3922 36.1725L49.1189 39.8097C49.0406 39.935 48.991 40.0761 48.9738 40.2229L48.1039 47.6168C48.0447 48.1205 47.6178 48.5 47.1108 48.5H42.5C41.9477 48.5 41.5 48.0523 41.5 47.5V14C41.5 13.4477 41.9477 13 42.5 13H62.5C63.0523 13 63.5 13.4477 63.5 14Z" fill="#0ABBE2"/>
<path d="M69.5 32.4064V10.5C69.4978 8.42988 67.8201 6.7522 65.75 6.75H64.5C64.4979 4.67988 62.8202 3.0022 60.75 3H39.5C38.0584 3.00469 36.6901 3.6353 35.75 4.72793C34.8099 3.6353 33.4416 3.00469 32 3H10.75C8.67983 3.0022 7.00215 4.67988 6.99995 6.75H5.75C3.67988 6.7522 2.0022 8.42988 2 10.5V56.75C2.0022 58.8201 3.67988 60.4978 5.75 60.5H47V66.75C47.0072 72.9602 52.0398 77.9928 58.25 78H65.75C71.9602 77.9928 76.9928 72.9602 77 66.75V43C76.9917 38.2381 73.9886 33.9964 69.5 32.4064ZM64.5 9.25005H65.75C66.4399 9.25093 66.9991 9.81006 67 10.5V31.8237C66.585 31.776 66.1676 31.7514 65.75 31.75H64.5V9.25005ZM14.5 5.50005H22V21.9368L19.2258 18.4693C18.9888 18.1727 18.6296 18 18.25 18C17.8703 18 17.5111 18.1727 17.2741 18.4693L14.5 21.9368V5.50005ZM9.5 6.75C9.50088 6.06006 10.06 5.50093 10.75 5.50005H11.9999V25.5C11.9996 26.031 12.3349 26.504 12.836 26.6798C13.337 26.8556 13.8944 26.6955 14.2259 26.2806L18.25 21.2508L22.274 26.2806C22.511 26.5774 22.8702 26.7501 23.2499 26.75C23.5815 26.7502 23.8996 26.6186 24.1341 26.3842C24.3686 26.1497 24.5001 25.8316 24.4999 25.5V5.50005H31.9999C33.38 5.50137 34.4984 6.61992 34.4999 8.0001V48.7726C33.7171 48.2735 32.8092 48.0057 31.8809 48H9.5V6.75ZM9.5 50.5H31.8811C33.2567 50.5482 34.3741 51.627 34.4706 53.0001H9.5V50.5ZM47 58H5.75C5.06006 57.9992 4.50093 57.44 4.50005 56.7501V10.5C4.50093 9.81006 5.06006 9.25093 5.75 9.25005H6.99995V54.25C6.99995 54.9404 7.55952 55.5 8.2499 55.5H47V58ZM47 53H37.0294C37.1277 51.6253 38.2477 50.5466 39.6251 50.4999H47V53ZM47 48H39.6251C38.6946 48.0056 37.7845 48.2741 37 48.7743V7.99995C37.0013 6.61978 38.1198 5.50137 39.5 5.4999H60.75C61.44 5.50078 61.9991 6.05991 62 6.74985V31.7499H58.25C52.0398 31.7571 47.0072 36.7897 47 42.9999V48ZM60.75 34.25V50.4999H49.5V42.9999C49.5055 38.1697 53.4198 34.2554 58.25 34.25H60.75ZM74.5 66.75C74.4945 71.5802 70.5802 75.4945 65.75 75.5H58.25C53.4198 75.4945 49.5055 71.5802 49.5 66.75V53H74.5001V66.75H74.5ZM74.5 50.5H63.25V34.25H65.75C70.5802 34.2554 74.4945 38.1697 74.5 42.9999V50.5Z" fill="#012F6B"/>
</svg>
