<svg width="80" height="80" viewBox="0 0 80 80" fill="none" xmlns="http://www.w3.org/2000/svg">
<path d="M22 33C22 28.5817 25.5817 25 30 25H73V58.913L65.2391 66.2174L57.4783 73H22V33Z" fill="#0ABBE2"/>
<circle cx="58.5" cy="59.5" r="13.5" fill="white"/>
<path d="M72.9999 43.1426V19.0097C72.9999 15.8908 70.4685 13.3594 67.3496 13.3594H12.6503C9.53147 13.3594 7 15.8908 7 19.0097V67.2894C7 70.4083 9.53147 72.9397 12.6503 72.9397H40.007" stroke="#012F6B" stroke-width="2.3" stroke-miterlimit="10" stroke-linecap="round" stroke-linejoin="round"/>
<path d="M21.5322 5.84766V18.7008" stroke="#012F6B" stroke-width="2.3" stroke-miterlimit="10" stroke-linecap="round" stroke-linejoin="round"/>
<path d="M39.3213 5.84766V18.7008" stroke="#012F6B" stroke-width="2.3" stroke-miterlimit="10" stroke-linecap="round" stroke-linejoin="round"/>
<path d="M57.0977 5.84766V18.7008" stroke="#012F6B" stroke-width="2.3" stroke-miterlimit="10" stroke-linecap="round" stroke-linejoin="round"/>
<path d="M58.5528 72.9103C66.2153 72.9103 72.4269 66.6987 72.4269 59.0362C72.4269 51.3738 66.2153 45.1621 58.5528 45.1621C50.8904 45.1621 44.6787 51.3738 44.6787 59.0362C44.6787 66.6987 50.8904 72.9103 58.5528 72.9103Z" stroke="#012F6B" stroke-width="2.3" stroke-miterlimit="10" stroke-linecap="round" stroke-linejoin="round"/>
<path d="M58.0625 51.9004V59.6207H63.2093" stroke="#012F6B" stroke-width="2" stroke-miterlimit="10" stroke-linecap="round" stroke-linejoin="round"/>
<circle cx="19.5" cy="29.5" r="2.5" fill="#012F6B"/>
<circle cx="19.5" cy="42.5" r="2.5" fill="#012F6B"/>
<circle cx="19.5" cy="55.5" r="2.5" fill="#012F6B"/>
<circle cx="29.5" cy="29.5" r="2.5" fill="#012F6B"/>
<circle cx="29.5" cy="42.5" r="2.5" fill="#012F6B"/>
<circle cx="29.5" cy="55.5" r="2.5" fill="#012F6B"/>
<circle cx="39.5" cy="29.5" r="2.5" fill="#012F6B"/>
<circle cx="39.5" cy="42.5" r="2.5" fill="#012F6B"/>
<circle cx="39.5" cy="55.5" r="2.5" fill="#012F6B"/>
<circle cx="49.5" cy="29.5" r="2.5" fill="#012F6B"/>
<circle cx="59.5" cy="29.5" r="2.5" fill="#012F6B"/>
</svg>
