<svg width="73" height="73" viewBox="0 0 73 73" fill="none" xmlns="http://www.w3.org/2000/svg">
<path fill-rule="evenodd" clip-rule="evenodd" d="M60.4591 14.2795C60.4585 14.2639 60.458 14.2483 60.4569 14.2327C60.4524 14.1709 60.4463 14.1102 60.434 14.05C60.434 14.05 60.434 14.05 60.434 14.0495C60.4218 13.9893 60.4045 13.9297 60.385 13.8718C60.38 13.8573 60.375 13.8429 60.3694 13.8284C60.3488 13.7732 60.3254 13.7192 60.2987 13.6669C60.297 13.6641 60.2959 13.6613 60.2942 13.6585C60.2653 13.6039 60.2319 13.5521 60.1957 13.5015C60.1867 13.4886 60.1773 13.4764 60.1678 13.4636C60.1294 13.4135 60.0893 13.365 60.0442 13.3199L47.142 0.417709C47.0969 0.372596 47.0484 0.332496 46.9983 0.294067C46.9855 0.284599 46.9727 0.274574 46.9599 0.265663C46.9092 0.229461 46.8579 0.196045 46.8039 0.16764C46.8 0.165413 46.7961 0.164299 46.7928 0.162071C46.7415 0.135338 46.6881 0.112503 46.634 0.0918958C46.619 0.0863265 46.6045 0.0813138 46.5889 0.0763014C46.531 0.0568084 46.4725 0.0395431 46.4118 0.0272903C46.4113 0.0272903 46.4107 0.0272903 46.4107 0.0272903C46.3511 0.0155944 46.2904 0.00891111 46.2291 0.00445556C46.2136 0.00389862 46.198 0.00278472 46.1824 0.00222778C46.1662 0.00167084 46.1501 0 46.1339 0H13.8306C13.043 0 12.4048 0.638258 12.4048 1.42578V62.4524C12.4048 63.2399 13.043 63.8782 13.8306 63.8782H35.2963V71.5741C35.2963 72.0926 35.5781 72.5704 36.032 72.8216C36.4865 73.0728 37.0407 73.0578 37.4801 72.7821L42.9103 69.3753L48.3405 72.7821C48.5717 72.9269 48.8351 72.9998 49.0985 72.9998C49.3358 72.9998 49.5736 72.9408 49.7886 72.8222C50.2425 72.571 50.5243 72.0931 50.5243 71.5741V63.8782H59.0355C59.8231 63.8782 60.4613 63.2399 60.4613 62.4524V14.328C60.4613 14.3118 60.4596 14.2957 60.4591 14.2795ZM47.5597 4.86825L55.5936 12.9022H47.5597V4.86825ZM34.5929 44.0382C34.4927 43.7658 34.3295 43.3208 34.3256 43.1387C34.437 43.0006 34.8235 42.7561 35.0602 42.6068C35.5681 42.286 36.144 41.9218 36.5617 41.3526C36.9833 40.7773 37.1549 40.1128 37.3063 39.5269C37.3726 39.2707 37.4795 38.8569 37.5709 38.7004C37.621 38.6898 37.7263 38.6748 37.924 38.6748C38.0827 38.6748 38.2604 38.6837 38.4486 38.6932C38.6647 38.7038 38.8875 38.7149 39.1203 38.7149C39.6338 38.7149 40.0482 38.657 40.4241 38.5317C41.0808 38.3133 41.606 37.8906 42.0693 37.5175C42.3255 37.3114 42.7544 36.9661 42.9036 36.9449C43.0668 36.9661 43.4951 37.3114 43.7513 37.5175C44.2147 37.8906 44.7404 38.3133 45.3971 38.5317C45.773 38.657 46.1868 38.7149 46.7009 38.7149C46.9331 38.7149 47.1565 38.7038 47.372 38.6932C47.5602 38.6837 47.7379 38.6748 47.8972 38.6748C48.0949 38.6748 48.1996 38.6893 48.2503 38.7004C48.3416 38.8569 48.4486 39.2707 48.5143 39.5269C48.6658 40.1128 48.8379 40.7773 49.2595 41.3526C49.6766 41.9218 50.2525 42.2855 50.761 42.6068C50.9972 42.7566 51.3837 43.0006 51.4951 43.1387C51.4912 43.3208 51.328 43.7658 51.2283 44.0382C51.0161 44.6157 50.776 45.2707 50.776 45.9964C50.776 46.7221 51.0161 47.3771 51.2277 47.9552C51.328 48.2275 51.4912 48.6725 51.4951 48.8546C51.3837 48.9927 50.9972 49.2367 50.761 49.3865C50.2525 49.7073 49.6766 50.0716 49.2595 50.6407C48.8379 51.2161 48.6658 51.8805 48.5143 52.4664C48.4486 52.722 48.3411 53.1364 48.2503 53.2929C48.1996 53.3035 48.0949 53.3185 47.8972 53.3185C47.7379 53.3185 47.5602 53.3096 47.372 53.3002C47.1565 53.2896 46.9331 53.2784 46.7009 53.2784C46.1868 53.2784 45.773 53.3364 45.3971 53.4617C44.7404 53.68 44.2147 54.1033 43.7513 54.4759C43.499 54.6797 43.078 55.0178 42.9103 55.0479C42.7427 55.0178 42.3222 54.6797 42.0699 54.4759C41.606 54.1033 41.0808 53.68 40.4241 53.4617C40.0482 53.3364 39.6338 53.2784 39.1203 53.2784C38.8881 53.2784 38.6647 53.2896 38.4486 53.3002C38.2609 53.3096 38.0833 53.3185 37.924 53.3185C37.7263 53.3185 37.6216 53.3035 37.5709 53.2929C37.4795 53.1364 37.3726 52.7226 37.3063 52.4664C37.1554 51.8805 36.9833 51.2161 36.5617 50.6407C36.1446 50.0716 35.5687 49.7073 35.0602 49.3865C34.824 49.2372 34.4375 48.9927 34.3261 48.8546C34.33 48.6731 34.4932 48.2275 34.5929 47.9552C34.8051 47.3776 35.0451 46.7226 35.0451 45.9969C35.0451 45.2707 34.8045 44.6157 34.5929 44.0382ZM47.6728 68.9965L43.6683 66.4842C43.2049 66.194 42.6157 66.194 42.1523 66.4842L38.1479 68.9965V56.1656C38.2994 56.1612 38.4481 56.1556 38.5923 56.1484C38.7811 56.1383 38.9594 56.1294 39.1203 56.1294C39.3732 56.1294 39.4812 56.1528 39.523 56.1668C39.6928 56.2236 40.0192 56.4864 40.2815 56.6975C40.9471 57.2333 41.7753 57.9 42.9103 57.9C44.0454 57.9 44.8735 57.2333 45.5391 56.6975C45.8014 56.4864 46.1278 56.2236 46.2971 56.1673C46.3394 56.1534 46.4475 56.13 46.7003 56.13C46.8613 56.13 47.0395 56.1389 47.2283 56.1484C47.3726 56.1556 47.5213 56.1617 47.6722 56.1656V68.9965H47.6728ZM50.5243 61.0267V55.0167C50.9481 54.4408 51.1253 53.7591 51.2751 53.1799C51.3536 52.8758 51.4611 52.4597 51.5591 52.3266C51.6566 52.193 52.0191 51.9641 52.2837 51.797C52.9854 51.3536 53.8587 50.8017 54.2057 49.758C54.5488 48.7282 54.1918 47.7552 53.905 46.9733C53.7746 46.6185 53.627 46.2158 53.627 45.9964C53.627 45.777 53.7746 45.3748 53.905 45.0201C54.1918 44.2381 54.5488 43.2646 54.2057 42.2348C53.8587 41.1916 52.9854 40.6397 52.2837 40.1964C52.0191 40.0293 51.6566 39.7998 51.5591 39.6673C51.4611 39.5336 51.3536 39.1176 51.2751 38.8135C51.0701 38.0198 50.815 37.0318 49.9417 36.3913C49.2467 35.8823 48.4419 35.8232 47.8966 35.8232C47.6661 35.8232 47.4433 35.8344 47.2283 35.8455C47.0395 35.855 46.8613 35.8639 46.7009 35.8639C46.4475 35.8639 46.3394 35.8405 46.2977 35.8266C46.1283 35.7703 45.802 35.5075 45.5397 35.2958C44.8735 34.7606 44.0454 34.0939 42.9103 34.0939C41.7758 34.0939 40.9471 34.7606 40.2815 35.2958C40.0192 35.5069 39.6928 35.7703 39.5235 35.8266C39.4818 35.8405 39.3732 35.8639 39.1203 35.8639C38.9599 35.8639 38.7811 35.855 38.5923 35.845C38.3773 35.8344 38.1551 35.8232 37.924 35.8232C37.3793 35.8232 36.5745 35.8823 35.88 36.3913C35.0062 37.0318 34.7505 38.0198 34.5456 38.8135C34.467 39.1176 34.3595 39.5336 34.2621 39.6667C34.1641 39.7998 33.8015 40.0293 33.5369 40.1964C32.8352 40.6397 31.9625 41.1916 31.6149 42.2348C31.2718 43.2651 31.6288 44.2381 31.9157 45.0201C32.046 45.3748 32.1936 45.777 32.1936 45.9964C32.1936 46.2158 32.046 46.6185 31.9157 46.9733C31.6288 47.7552 31.2718 48.7282 31.6149 49.7585C31.9625 50.8017 32.8357 51.3536 33.5369 51.797C33.802 51.9641 34.1641 52.1935 34.2621 52.3266C34.3595 52.4597 34.467 52.8758 34.5456 53.1799C34.6954 53.7591 34.873 54.4413 35.2969 55.0167V61.0267H15.2563V2.85156H44.7081V14.328C44.7081 15.1155 45.3464 15.7537 46.1339 15.7537H57.6098V61.0267H50.5243Z" fill="#44C859"/>
<path fill-rule="evenodd" clip-rule="evenodd" d="M20.7974 15.752H39.1666C39.9535 15.752 40.5923 15.1137 40.5923 14.3262C40.5923 13.5387 39.9535 12.9004 39.1666 12.9004H20.7974C20.0098 12.9004 19.3716 13.5387 19.3716 14.3262C19.3716 15.1137 20.0104 15.752 20.7974 15.752Z" fill="#44C859"/>
<path fill-rule="evenodd" clip-rule="evenodd" d="M52.2281 20.0977H20.7974C20.0098 20.0977 19.3716 20.7359 19.3716 21.5234C19.3716 22.311 20.0098 22.9492 20.7974 22.9492H52.2281C53.0156 22.9492 53.6538 22.311 53.6538 21.5234C53.6538 20.7359 53.0156 20.0977 52.2281 20.0977Z" fill="#44C859"/>
<path fill-rule="evenodd" clip-rule="evenodd" d="M46.5249 27.2949H20.7974C20.0098 27.2949 19.3716 27.9337 19.3716 28.7207C19.3716 29.5082 20.0098 30.1465 20.7974 30.1465H46.5249C47.3124 30.1465 47.9507 29.5082 47.9507 28.7207C47.9507 27.9337 47.3124 27.2949 46.5249 27.2949Z" fill="#44C859"/>
<path fill-rule="evenodd" clip-rule="evenodd" d="M52.228 27.2949C51.4427 27.2949 50.8022 27.9354 50.8022 28.7207C50.8022 29.506 51.4427 30.1465 52.228 30.1465C53.0139 30.1465 53.6538 29.506 53.6538 28.7207C53.6538 27.9354 53.0139 27.2949 52.228 27.2949Z" fill="#44C859"/>
</svg>
