<svg width="80" height="80" viewBox="0 0 80 80" fill="none" xmlns="http://www.w3.org/2000/svg">
<circle cx="40" cy="40" r="38" stroke="#C0CAD6" stroke-width="4"/>
<path d="M33.4196 30H34.5538C34.9852 30 35.3351 29.6502 35.3351 29.2188C35.3351 28.7873 34.9852 28.4375 34.5538 28.4375H33.4196C33.3207 28.4375 33.2402 28.357 33.2402 28.2581V27.5H34.2553C34.6867 27.5 35.0366 27.1502 35.0366 26.7188C35.0366 26.2873 34.6867 25.9375 34.2553 25.9375H33.2402V25.1794C33.2402 25.0805 33.3207 25 33.4196 25H34.5538C34.9852 25 35.3351 24.6502 35.3351 24.2188C35.3351 23.7873 34.9852 23.4375 34.5538 23.4375H33.4196C32.4591 23.4375 31.6777 24.2189 31.6777 25.1794V28.2581C31.6777 29.2186 32.4591 30 33.4196 30Z" fill="#C0CAD6"/>
<path d="M38.6927 28.4375H37.3516C36.9202 28.4375 36.5703 28.7873 36.5703 29.2188C36.5703 29.6502 36.9202 30 37.3516 30H38.6927C39.8128 30 40.724 29.0887 40.724 27.9688C40.724 26.8487 39.8128 25.9375 38.6927 25.9375H38.6016C38.343 25.9375 38.1328 25.7273 38.1328 25.4688C38.1328 25.2102 38.343 25 38.6016 25H39.5009C39.9323 25 40.2822 24.6502 40.2822 24.2188C40.2822 23.7873 39.9323 23.4375 39.5009 23.4375H38.6016C37.4815 23.4375 36.5703 24.3487 36.5703 25.4688C36.5703 26.5888 37.4815 27.5 38.6016 27.5H38.6927C38.9512 27.5 39.1615 27.7102 39.1615 27.9688C39.1615 28.2273 38.9512 28.4375 38.6927 28.4375Z" fill="#C0CAD6"/>
<path d="M30.0986 23.4375H27.5205C27.0891 23.4375 26.7393 23.7873 26.7393 24.2188C26.7393 24.6502 27.0891 25 27.5205 25H28.0283V29.2188C28.0283 29.6502 28.3782 30 28.8096 30C29.241 30 29.5908 29.6502 29.5908 29.2188V25H30.0986C30.53 25 30.8799 24.6502 30.8799 24.2188C30.8799 23.7873 30.5301 23.4375 30.0986 23.4375Z" fill="#C0CAD6"/>
<path d="M42.5596 25H43.0674V29.2188C43.0674 29.6502 43.4172 30 43.8486 30C44.28 30 44.6299 29.6502 44.6299 29.2188V25H45.1377C45.5691 25 45.9189 24.6502 45.9189 24.2188C45.9189 23.7873 45.5691 23.4375 45.1377 23.4375H42.5596C42.1282 23.4375 41.7783 23.7873 41.7783 24.2188C41.7783 24.6502 42.1282 25 42.5596 25Z" fill="#C0CAD6"/>
<path d="M29.4121 33.125H26.2871C25.8557 33.125 25.5059 33.4748 25.5059 33.9062V37.0312C25.5059 37.4627 25.8557 37.8125 26.2871 37.8125H29.4121C29.8435 37.8125 30.1934 37.4627 30.1934 37.0312V33.9062C30.1934 33.4748 29.8436 33.125 29.4121 33.125ZM28.6309 36.25H27.0684V34.6875H28.6309V36.25Z" fill="#C0CAD6"/>
<path d="M45.2842 37.0312C45.2842 37.2367 45.3677 37.4383 45.5131 37.5836C45.6585 37.7289 45.86 37.8125 46.0654 37.8125C46.2709 37.8125 46.4725 37.7289 46.6177 37.5836C46.7638 37.4383 46.8467 37.2367 46.8467 37.0312C46.8467 36.8258 46.7638 36.6242 46.6177 36.4789C46.4725 36.3336 46.2716 36.25 46.0654 36.25C45.86 36.25 45.6584 36.3336 45.5131 36.4789C45.3677 36.6242 45.2842 36.8258 45.2842 37.0312Z" fill="#C0CAD6"/>
<path d="M42.9404 36.25H32.5107C32.0793 36.25 31.7295 36.5998 31.7295 37.0312C31.7295 37.4627 32.0793 37.8125 32.5107 37.8125H42.9404C43.3718 37.8125 43.7217 37.4627 43.7217 37.0312C43.7217 36.5998 43.3719 36.25 42.9404 36.25Z" fill="#C0CAD6"/>
<path d="M29.4121 41.25H26.2871C25.8557 41.25 25.5059 41.5998 25.5059 42.0312V45.1562C25.5059 45.5877 25.8557 45.9375 26.2871 45.9375H29.4121C29.8435 45.9375 30.1934 45.5877 30.1934 45.1562V42.0312C30.1934 41.5998 29.8436 41.25 29.4121 41.25ZM28.6309 44.375H27.0684V42.8125H28.6309V44.375Z" fill="#C0CAD6"/>
<path d="M29.4121 49.375H26.2871C25.8557 49.375 25.5059 49.7248 25.5059 50.1562V53.2812C25.5059 53.7127 25.8557 54.0625 26.2871 54.0625H29.4121C29.8435 54.0625 30.1934 53.7127 30.1934 53.2812V50.1562C30.1934 49.7248 29.8436 49.375 29.4121 49.375ZM28.6309 52.5H27.0684V50.9375H28.6309V52.5Z" fill="#C0CAD6"/>
<path d="M39.2197 52.5H32.5107C32.0793 52.5 31.7295 52.8498 31.7295 53.2812C31.7295 53.7127 32.0793 54.0625 32.5107 54.0625H39.2197C39.6511 54.0625 40.001 53.7127 40.001 53.2812C40.001 52.8498 39.6512 52.5 39.2197 52.5Z" fill="#C0CAD6"/>
<path d="M57.9696 26.218C57.2829 25.8214 56.4827 25.7162 55.7168 25.9214C54.9508 26.1266 54.3107 26.6179 53.9143 27.3047L53.1623 28.607V28.6071V28.6072L52.1104 30.4293V22.6562C52.1104 21.1916 50.9188 20 49.4541 20H23.2041C21.7394 20 20.5479 21.1916 20.5479 22.6562V57.3438C20.5479 58.8084 21.7394 60 23.2041 60H49.4541C50.9188 60 52.1104 58.8084 52.1104 57.3438V42.4219C52.1104 42.3864 52.1071 42.3518 52.1025 42.3176L58.3043 31.5758L59.0563 30.2734C59.8747 28.8557 59.3873 27.0365 57.9696 26.218ZM56.1213 27.4306C56.4841 27.3333 56.8631 27.3833 57.1884 27.5711C57.86 27.9588 58.0908 28.8205 57.7031 29.4921L57.3418 30.118L54.9061 28.7117L55.2674 28.0859C55.4553 27.7605 55.7584 27.5278 56.1213 27.4306ZM46.6121 48.7023L44.1764 47.2961L54.1248 30.0648L56.5605 31.4711L46.6121 48.7023ZM43.7285 48.8416L45.4975 49.863L43.3715 51.5027L43.7285 48.8416ZM50.5478 57.3438C50.5478 57.9469 50.0571 58.4375 49.454 58.4375H23.204C22.6009 58.4375 22.1103 57.9469 22.1103 57.3438V22.6562C22.1103 22.0531 22.6009 21.5625 23.204 21.5625H49.454C50.0571 21.5625 50.5478 22.0531 50.5478 22.6562V33.125C50.5478 33.1283 50.5482 33.1314 50.5482 33.1346L44.0587 44.375H32.5107C32.0793 44.375 31.7294 44.7248 31.7294 45.1562C31.7294 45.5877 32.0793 45.9375 32.5107 45.9375H43.1566L42.4326 47.1914C42.3817 47.2797 42.3485 47.3771 42.3349 47.4781L41.5704 53.1773C41.5282 53.4913 41.6797 53.7995 41.954 53.9578C42.0754 54.0279 42.2102 54.0625 42.3446 54.0625C42.5136 54.0625 42.682 54.0077 42.8218 53.8998L47.3751 50.3881C47.4558 50.3259 47.5236 50.2484 47.5746 50.1602L50.5478 45.0105V57.3438Z" fill="#C0CAD6"/>
</svg>
