<svg width="31" height="20" viewBox="0 0 31 20" fill="none" xmlns="http://www.w3.org/2000/svg">
<path d="M30.803 9.38966C30.5261 9.00619 23.9275 0 15.4999 0C7.07226 0 0.473357 9.00619 0.196717 9.3893C-0.0655725 9.7531 -0.0655725 10.2465 0.196717 10.6103C0.473357 10.9938 7.07226 20 15.4999 20C23.9275 20 30.5261 10.9938 30.803 10.6106C31.0657 10.2469 31.0657 9.7531 30.803 9.38966ZM15.4999 17.931C9.29203 17.931 3.9154 11.9535 2.3238 9.9993C3.91334 8.04342 9.27871 2.06896 15.4999 2.06896C21.7074 2.06896 27.0837 8.0455 28.6759 10.0007C27.0864 11.9565 21.721 17.931 15.4999 17.931Z" fill="#012F6B"/>
<path d="M15.502 3.94727C12.121 3.94727 9.37012 6.74947 9.37012 10.1937C9.37012 13.6379 12.121 16.4401 15.502 16.4401C18.8831 16.4401 21.6339 13.6379 21.6339 10.1937C21.6339 6.74947 18.8831 3.94727 15.502 3.94727ZM15.502 14.3579C13.2479 14.3579 11.4141 12.4899 11.4141 10.1937C11.4141 7.89748 13.2479 6.02945 15.502 6.02945C17.7561 6.02945 19.5899 7.89748 19.5899 10.1937C19.5899 12.4899 17.7562 14.3579 15.502 14.3579Z" fill="#012F6B"/>
</svg>
