<svg width="30" height="19" viewBox="0 0 30 19" fill="none" xmlns="http://www.w3.org/2000/svg">
<path d="M29.8094 8.92018C29.5414 8.55588 23.1556 0 14.9999 0C6.84412 0 0.458087 8.55588 0.190372 8.91983C-0.0634572 9.26545 -0.0634572 9.7342 0.190372 10.0798C0.458087 10.4441 6.84412 19 14.9999 19C23.1556 19 29.5414 10.4441 29.8094 10.0801C30.0635 9.73455 30.0635 9.26545 29.8094 8.92018ZM14.9999 17.0345C8.99229 17.0345 3.78909 11.3558 2.24883 9.49933C3.7871 7.64125 8.9794 1.96551 14.9999 1.96551C21.0072 1.96551 26.21 7.64322 27.7509 9.50067C26.2126 11.3587 21.0203 17.0345 14.9999 17.0345Z" fill="#0ABBE2"/>
<path d="M15.0005 3.74805C11.7285 3.74805 9.06641 6.41014 9.06641 9.68215C9.06641 12.9541 11.7285 15.6162 15.0005 15.6162C18.2725 15.6162 20.9346 12.9541 20.9346 9.68215C20.9346 6.41014 18.2725 3.74805 15.0005 3.74805ZM15.0005 13.6382C12.8191 13.6382 11.0445 11.8635 11.0445 9.68215C11.0445 7.50075 12.8191 5.72612 15.0005 5.72612C17.1819 5.72612 18.9565 7.50075 18.9565 9.68215C18.9565 11.8635 17.182 13.6382 15.0005 13.6382Z" fill="#0ABBE2"/>
</svg>
