<svg width="40" height="40" viewBox="0 0 40 40" fill="none" xmlns="http://www.w3.org/2000/svg">
<mask id="mask0" style="mask-type:alpha" maskUnits="userSpaceOnUse" x="0" y="0" width="40" height="40">
<circle cx="20" cy="20" r="20" fill="#C4C4C4"/>
</mask>
<g mask="url(#mask0)">
<path d="M0.597656 32.0156C0.625122 32.2921 0.653503 32.5686 0.683105 32.8451C1.04718 36.2563 3.74158 38.9507 7.15314 39.3148C15.7081 40.2279 24.2888 40.2279 32.8438 39.3148C36.2553 38.9507 38.9494 36.2563 39.3135 32.8451C39.3431 32.5686 39.3715 32.2921 39.3992 32.0156H0.597656Z" fill="url(#paint0_linear)"/>
<path d="M39.3152 7.15454C38.9511 3.74329 36.257 1.04858 32.8455 0.684814C24.2902 -0.228271 15.7098 -0.228271 7.15485 0.684814C3.74329 1.04889 1.04889 3.74329 0.684814 7.15454C-0.228271 15.7095 -0.228271 24.2902 0.684814 32.8452C1.04889 36.2567 3.74329 38.9511 7.15454 39.3152C15.7095 40.2283 24.2902 40.2283 32.8455 39.3152C36.257 38.9511 38.9511 36.2567 39.3152 32.8452C40.2283 24.2902 40.2283 15.7098 39.3152 7.15454Z" fill="#0ABBE2"/>
<path d="M10.3516 16.5529C10.4139 16.1062 10.4615 15.657 10.5407 15.2135C10.9902 12.7018 12.7438 10.9928 15.2511 10.9053C18.27 10.8001 21.2981 10.7945 24.3165 10.9048C27.0455 11.0044 29.0218 13.0535 29.1071 15.8217C29.1978 18.7611 29.1978 21.7077 29.1071 24.6471C29.0218 27.4153 27.0462 29.4642 24.3167 29.564C21.2983 29.6745 18.2695 29.6773 15.2513 29.5624C12.5219 29.4584 10.6351 27.4047 10.4526 24.6323C10.4368 24.3925 10.3861 24.1548 10.3516 23.9162C10.3516 21.4617 10.3516 19.0072 10.3516 16.5529ZM19.7659 27.9234C21.1473 27.9234 22.53 27.9654 23.9096 27.9137C26.0726 27.8324 27.4031 26.5233 27.4535 24.332C27.5161 21.6016 27.5161 18.8675 27.4535 16.1368C27.4031 13.9459 26.0717 12.6063 23.9096 12.5598C21.1653 12.5009 18.4181 12.5014 15.6738 12.5598C13.5281 12.6054 12.1938 13.9179 12.1355 16.0847C12.0615 18.8496 12.0615 21.6194 12.1355 24.3844C12.1938 26.5509 13.5281 27.8331 15.674 27.9137C17.0362 27.9651 18.4018 27.9234 19.7659 27.9234Z" fill="white"/>
<path d="M19.7663 15.0586C16.9076 15.0586 14.5898 17.3762 14.5898 20.2349C14.5898 23.094 16.9076 25.4115 19.7663 25.4115C22.6253 25.4115 24.9428 23.094 24.9428 20.2349C24.9428 17.3762 22.6253 15.0586 19.7663 15.0586ZM19.7663 23.6293C17.8917 23.6293 16.372 22.1096 16.372 20.2349C16.372 18.3602 17.8917 16.8406 19.7663 16.8406C21.641 16.8406 23.1606 18.3602 23.1606 20.2349C23.1606 22.1096 21.641 23.6293 19.7663 23.6293Z" fill="white"/>
<path d="M25.8824 15.0585C25.8824 15.5782 25.461 15.9995 24.9413 15.9995C24.4215 15.9995 24 15.5782 24 15.0585C24 14.5385 24.4215 14.1172 24.9413 14.1172C25.461 14.1172 25.8824 14.5385 25.8824 15.0585Z" fill="white"/>
</g>
<defs>
<linearGradient id="paint0_linear" x1="19.9983" y1="35.3095" x2="19.9983" y2="41.5445" gradientUnits="userSpaceOnUse">
<stop stop-color="#FAE100" stop-opacity="0"/>
<stop offset="0.3068" stop-color="#FCA800" stop-opacity="0.305882"/>
<stop offset="0.6275" stop-color="#FE7300" stop-opacity="0.627451"/>
<stop offset="0.8685" stop-color="#FF5200" stop-opacity="0.866667"/>
<stop offset="1" stop-color="#FF4500"/>
</linearGradient>
</defs>
</svg>
