<svg width="50" height="46" viewBox="0 0 50 46" fill="none" xmlns="http://www.w3.org/2000/svg">
<path d="M25 20.8334C24.8783 20.8334 24.7575 20.8078 24.645 20.7573L10.4783 14.3471C10.1867 14.2148 10 13.932 10 13.6219C10 13.3118 10.1867 13.0289 10.4783 12.8967L24.645 6.48648C24.87 6.38472 25.13 6.38472 25.355 6.48648L39.5217 12.8967C39.8133 13.0289 40 13.3118 40 13.6219C40 13.932 39.8133 14.2148 39.5217 14.3471L25.355 20.7573C25.2425 20.8078 25.1217 20.8334 25 20.8334ZM12.7908 13.6219L25 19.1467L37.2092 13.6219L25 8.09705L12.7908 13.6219Z" fill="#0ABBE2"/>
<path d="M25.0013 27.2446C24.8738 27.2446 24.7455 27.2165 24.6288 27.1604L14.6288 22.3527C14.3463 22.2165 14.168 21.9393 14.168 21.6356V15.5082C14.168 15.2341 14.3138 14.9785 14.5546 14.8319C14.7955 14.6845 15.098 14.6676 15.3555 14.783L25.0013 19.1476L34.6463 14.783C34.9046 14.6668 35.2071 14.6845 35.4471 14.8319C35.6888 14.9785 35.8346 15.2341 35.8346 15.5082V21.6356C35.8346 21.9393 35.6563 22.2165 35.3738 22.3527L25.3738 27.1604C25.2571 27.2165 25.1288 27.2446 25.0013 27.2446ZM15.8346 21.1404L25.0013 25.5474L34.168 21.1404V16.771L25.3563 20.7582C25.1313 20.8599 24.8713 20.8599 24.6463 20.7582L15.8346 16.771V21.1404Z" fill="#0ABBE2"/>
<path d="M39.1641 14.4248H24.9974C24.5374 14.4248 24.1641 14.0659 24.1641 13.6235C24.1641 13.1812 24.5374 12.8223 24.9974 12.8223H39.1641C39.6241 12.8223 39.9974 13.1812 39.9974 13.6235C39.9974 14.0659 39.6241 14.4248 39.1641 14.4248Z" fill="#0ABBE2"/>
<path d="M39.1693 21.6364C38.7093 21.6364 38.3359 21.2774 38.3359 20.8351V13.6235C38.3359 13.1812 38.7093 12.8223 39.1693 12.8223C39.6293 12.8223 40.0026 13.1812 40.0026 13.6235V20.8351C40.0026 21.2774 39.6293 21.6364 39.1693 21.6364Z" fill="#0ABBE2"/>
<path d="M24.9974 16.0264C24.5374 16.0264 24.1641 15.6675 24.1641 15.2252V12.02C24.1641 11.5777 24.5374 11.2188 24.9974 11.2188C25.4574 11.2188 25.8307 11.5777 25.8307 12.02V15.2252C25.8307 15.6675 25.4574 16.0264 24.9974 16.0264Z" fill="#0ABBE2"/>
<path d="M37.5004 24.0385C37.342 24.0385 37.1812 23.9952 37.0387 23.9039C36.6562 23.6587 36.5529 23.1611 36.8079 22.7925L38.4745 20.3886C38.7295 20.02 39.2462 19.9199 39.6304 20.1667C40.0129 20.4119 40.1162 20.9095 39.8612 21.2781L38.1945 23.6819C38.0337 23.9135 37.7695 24.0385 37.5004 24.0385Z" fill="#0ABBE2"/>
<path d="M40.8367 24.0385C40.5675 24.0385 40.3033 23.9135 40.1425 23.6819L38.4758 21.2781C38.2208 20.9103 38.3242 20.4119 38.7067 20.1667C39.0892 19.9199 39.6067 20.02 39.8625 20.3886L41.5292 22.7925C41.7842 23.1603 41.6808 23.6587 41.2983 23.9039C41.1558 23.9952 40.995 24.0385 40.8367 24.0385Z" fill="#0ABBE2"/>
<path d="M24.9974 23.2369C24.5374 23.2369 24.1641 22.8779 24.1641 22.4356V20.0318C24.1641 19.5894 24.5374 19.2305 24.9974 19.2305C25.4574 19.2305 25.8307 19.5894 25.8307 20.0318V22.4356C25.8307 22.8779 25.4574 23.2369 24.9974 23.2369Z" fill="#0ABBE2"/>
<path d="M49.1667 30.4487H0.833333C0.373333 30.4487 0 30.0897 0 29.6474V3.20593C0 1.4383 1.49583 0 3.33417 0H46.6658C48.5042 0 50 1.4383 50 3.20593V29.6474C50 30.0897 49.6267 30.4487 49.1667 30.4487ZM1.66667 28.8462H48.3333V3.20593C48.3333 2.32131 47.5858 1.60256 46.6658 1.60256H3.33417C2.41417 1.60256 1.66667 2.32131 1.66667 3.20593V28.8462Z" fill="#0ABBE2"/>
<path d="M46.6658 35.8995H3.33417C1.49583 35.8995 0 34.4612 0 32.6936V28.688C0 28.2457 0.373333 27.8867 0.833333 27.8867H49.1667C49.6267 27.8867 50 28.2457 50 28.688V32.6936C50 34.4612 48.5042 35.8995 46.6658 35.8995ZM1.66667 29.4893V32.6936C1.66667 33.5782 2.41417 34.297 3.33417 34.297H46.6658C47.5858 34.297 48.3333 33.5782 48.3333 32.6936V29.4893H1.66667Z" fill="#0ABBE2"/>
<path d="M27.4974 33.6533H22.4974C22.0374 33.6533 21.6641 33.2944 21.6641 32.8521C21.6641 32.4098 22.0374 32.0508 22.4974 32.0508H27.4974C27.9574 32.0508 28.3307 32.4098 28.3307 32.8521C28.3307 33.2944 27.9574 33.6533 27.4974 33.6533Z" fill="#0ABBE2"/>
<path d="M45.8359 30.4487H4.16927C3.70927 30.4487 3.33594 30.0897 3.33594 29.6474V4.00636C3.33594 3.56405 3.70927 3.20508 4.16927 3.20508H45.8359C46.2959 3.20508 46.6693 3.56405 46.6693 4.00636V29.6474C46.6693 30.0897 46.2959 30.4487 45.8359 30.4487ZM5.0026 28.8461H45.0026V4.80764H5.0026V28.8461Z" fill="#0ABBE2"/>
<path d="M35.8346 45.5128H14.168C12.7896 45.5128 11.668 44.4342 11.668 43.1089C11.668 41.7836 12.7896 40.7051 14.168 40.7051H35.8346C37.213 40.7051 38.3346 41.7836 38.3346 43.1089C38.3346 44.4342 37.213 45.5128 35.8346 45.5128ZM14.168 42.3076C13.7088 42.3076 13.3346 42.6674 13.3346 43.1089C13.3346 43.5504 13.7088 43.9102 14.168 43.9102H35.8346C36.2938 43.9102 36.668 43.5504 36.668 43.1089C36.668 42.6674 36.2938 42.3076 35.8346 42.3076H14.168Z" fill="#0ABBE2"/>
<path d="M34.1667 42.3077H15.8333C15.3733 42.3077 15 41.9488 15 41.5065C15 41.0641 15.3733 40.7052 15.8333 40.7052C18.5983 40.7052 20 38.8182 20 35.0962C20 34.6539 20.3733 34.2949 20.8333 34.2949H29.1667C29.6267 34.2949 30 34.6539 30 35.0962C30 38.8182 31.4017 40.7052 34.1667 40.7052C34.6267 40.7052 35 41.0641 35 41.5065C35 41.9488 34.6267 42.3077 34.1667 42.3077ZM19.8925 40.7052H30.1083C29.0817 39.6122 28.4775 37.9848 28.3567 35.8975H21.6442C21.5225 37.9848 20.9192 39.6122 19.8925 40.7052Z" fill="#0ABBE2"/>
</svg>
