<svg width="50" height="50" viewBox="0 0 50 50" fill="none" xmlns="http://www.w3.org/2000/svg">
<path d="M47.2805 24.3008C46.2453 23.2656 44.875 22.5953 43.4227 22.4141L41.2125 22.1375C40.432 22.0398 39.8438 21.3734 39.8438 20.5875V20.2484C41.3687 19.3633 42.4891 17.8562 42.8461 16.0734L44.1047 15.1641C45.35 14.2297 46.0938 12.7422 46.0938 11.1852C46.0938 9.30391 45.1609 7.55703 43.5977 6.51172C42.4781 3.97109 39.993 2.34375 37.1992 2.34375H36.2391C33.4453 2.34375 30.9602 3.97109 29.8406 6.51172C28.2766 7.55703 27.3438 9.30391 27.3438 11.1852C27.3438 12.7422 28.0875 14.2297 29.3445 15.1727L30.5914 16.0734C30.9484 17.8562 32.0688 19.3633 33.5938 20.2484V20.5047C33.5938 21.2781 33.0273 21.9414 32.2758 22.0469C31.257 22.1906 30.3031 22.4094 29.4398 22.6969C27.6406 23.2969 25.8922 24.7039 25.0195 25.4781L18.75 19.2078L16.8422 17.3C16.2656 16.7234 15.5 16.4062 14.6844 16.4062C13.568 16.4062 12.5602 17.0016 12.0203 17.9688H11.7188C10.4266 17.9688 9.375 19.0203 9.375 20.3125V21.875C9.375 23.1672 10.4266 24.2188 11.7188 24.2188H15.3016L21.518 30.4352C22.5469 31.4641 23.9156 32.0312 25.3719 32.0312C26.2813 32.0312 27.1836 31.8016 27.9813 31.3656L28.9062 30.8617V49.2188H44.5312V43.6063C44.7766 43.6938 45.0375 43.75 45.3125 43.75H46.875C48.1672 43.75 49.2188 42.6984 49.2188 41.4062V28.9797C49.2188 27.2125 48.5305 25.5508 47.2805 24.3008ZM39.5844 23.1133C39.7695 23.2469 39.9703 23.3578 40.1836 23.4492L39.3813 27.8594L37.6977 25.7547L39.5844 23.1133ZM28.9062 11.1852C28.9062 9.82422 29.582 8.56172 30.7141 7.80625L31.1039 7.54609L31.1945 7.32109C32.0242 5.24688 34.0039 3.90625 36.2383 3.90625H37.1984C39.4328 3.90625 41.4133 5.24687 42.243 7.32187L42.3336 7.54688L42.7234 7.80703C43.8555 8.56094 44.5312 9.82422 44.5312 11.1852C44.5312 12.2531 44.0211 13.2734 43.1781 13.9055L42.9688 14.057V11.1555L42.1875 10.8953C40.9305 10.4758 39.7711 9.75938 38.8344 8.82266L38.3555 8.34375L37.8125 8.75C35.9313 10.1602 33.6008 10.9375 31.25 10.9375H30.4688V14.057L30.2711 13.9141C29.4164 13.2734 28.9062 12.2531 28.9062 11.1852ZM32.0312 14.8438V12.475C34.2305 12.3344 36.3812 11.6062 38.2133 10.3805C39.1492 11.2 40.2383 11.8477 41.4062 12.2773V14.8438C41.4062 17.4289 39.3039 19.5312 36.7188 19.5312C34.1336 19.5312 32.0312 17.4289 32.0312 14.8438ZM36.7188 21.0938C37.2687 21.0938 37.8 21.0148 38.3086 20.8813C38.3414 21.225 38.4266 21.5516 38.5625 21.8555L36.7188 24.4367L34.8508 21.8219C34.9891 21.5273 35.0813 21.2117 35.1219 20.8789C35.6328 21.0148 36.1656 21.0938 36.7188 21.0938ZM35.7398 25.7547L34.0555 27.8602L33.2398 23.3766C33.4438 23.2906 33.6352 23.1852 33.8141 23.0594L35.7398 25.7547ZM10.9375 21.875V20.3125C10.9375 19.882 11.2883 19.5312 11.7188 19.5312H12.9828L13.3523 18.7922C13.6062 18.2844 14.1164 17.9688 14.6844 17.9688C15.0758 17.9688 15.4602 18.1281 15.7375 18.4047L17.6453 20.3125L15.3016 22.6562H11.7188C11.2883 22.6562 10.9375 22.3055 10.9375 21.875ZM27.2336 29.9937C26.6641 30.3047 26.0203 30.4688 25.3719 30.4688C24.3328 30.4688 23.3562 30.0641 22.6219 29.3297L16.7297 23.4375L18.75 21.4172L24.3578 27.025L25.082 28.4742L26.4797 27.775L25.9594 26.7336C26.7008 26.0672 28.3406 24.7086 29.9344 24.1781C30.4836 23.9953 31.0891 23.8547 31.7172 23.7352L33.132 31.5148L36.7188 27.032L40.3055 31.5156L41.7125 23.775L43.2289 23.9641C44.3383 24.1031 45.3852 24.6148 46.1758 25.4055C47.1305 26.3602 47.6562 27.6297 47.6562 28.9797V35.9375H44.5312V29.2297C44.5312 28.7336 44.7328 28.2469 45.0836 27.8961L43.9789 26.7914C43.3273 27.4422 42.9688 28.3086 42.9688 29.2297V36.3953L42.0781 37.2859C41.7977 37.5664 41.6086 37.9102 41.5031 38.2812H30.4688V29.2297C30.4688 28.3086 30.1102 27.4422 29.4586 26.7914L28.3539 27.8961C28.6711 28.2133 28.8578 28.643 28.8922 29.0898L27.2336 29.9937ZM42.9688 47.6562H37.5V45.4391C37.5 44.2984 38.2273 43.2898 39.3094 42.9289L38.8148 41.4469C37.9461 41.7367 37.2234 42.2891 36.718 42.9984C36.2133 42.2898 35.4898 41.7367 34.6211 41.4469L34.1266 42.9289C35.2102 43.2898 35.9375 44.2984 35.9375 45.4391V47.6562H30.4688V39.8438H41.6039C41.8156 40.3203 42.1875 40.7172 42.675 40.9609L42.9688 41.1078V41.4062V47.6562ZM46.875 42.1875H45.3125C44.882 42.1875 44.5312 41.8367 44.5312 41.4062V40.625V40.1422L43.3734 39.5633C43.1242 39.4383 42.9688 39.1875 42.9688 38.9086C42.9688 38.7133 43.0453 38.5289 43.1828 38.3906L44.0734 37.5H47.6562V41.4062C47.6562 41.8367 47.3055 42.1875 46.875 42.1875Z" fill="#0ABBE2"/>
<path d="M16.3984 39.3531L15.8609 39.2453C16.2125 38.4531 16.4062 37.5992 16.4062 36.7188V32.0312C16.4062 28.5852 13.6023 25.7812 10.1562 25.7812C6.71016 25.7812 3.90625 28.5852 3.90625 32.0312V36.7188C3.90625 37.5984 4.1 38.4523 4.45156 39.2445L3.91406 39.3531C2.09922 39.7195 0.78125 41.3297 0.78125 43.182V49.2188H19.5312V43.182C19.5312 41.3297 18.2133 39.7195 16.3984 39.3531ZM13.6328 38.7969C13.2406 38.6852 12.9188 38.4227 12.7188 38.0805C13.1469 37.7047 13.4992 37.2469 13.7312 36.7188H14.0625C14.3375 36.7188 14.5984 36.6625 14.8438 36.575V36.7188C14.8438 37.4977 14.643 38.2492 14.2789 38.9266L13.6328 38.7969ZM12.5 35.1562C12.5 36.4484 11.4484 37.5 10.1562 37.5C8.86406 37.5 7.8125 36.4484 7.8125 35.1562V32.7703C8.62266 32.6836 9.41797 32.4633 10.1562 32.1195C10.8945 32.4625 11.6898 32.6836 12.5 32.7703V35.1562ZM11.5469 42.1875H8.76484L8.20938 39.7281C8.50938 39.4867 8.75938 39.1883 8.95312 38.8531C9.33516 38.9781 9.73438 39.0625 10.1562 39.0625C10.5789 39.0625 10.9781 38.9781 11.3602 38.8531C11.5523 39.1836 11.8023 39.4781 12.1047 39.7203L11.5469 42.1875ZM11.1945 43.75L10.3125 47.6562H10L9.11797 43.75H11.1945ZM14.0625 33.5938C14.493 33.5938 14.8438 33.9445 14.8438 34.375C14.8438 34.8055 14.493 35.1562 14.0625 35.1562V33.5938ZM10.1562 27.3438C12.7414 27.3438 14.8438 29.4461 14.8438 32.0312V32.175C14.5984 32.0875 14.3375 32.0312 14.0625 32.0312V31.25H13.2812C12.3797 31.25 11.4766 31.0367 10.6703 30.6336L10.1562 30.3766L9.64219 30.6336C8.83594 31.0367 7.93281 31.25 7.03125 31.25H6.25V32.0312C5.975 32.0312 5.71406 32.0875 5.46875 32.175V32.0312C5.46875 29.4461 7.57109 27.3438 10.1562 27.3438ZM6.25 35.1562C5.81953 35.1562 5.46875 34.8055 5.46875 34.375C5.46875 33.9445 5.81953 33.5938 6.25 33.5938V35.1562ZM5.46875 36.7188V36.575C5.71406 36.6625 5.975 36.7188 6.25 36.7188H6.58125C6.81328 37.2477 7.16641 37.7055 7.59453 38.0812C7.39766 38.4219 7.0875 38.6812 6.73906 38.782L6.03281 38.925C5.66875 38.2477 5.46875 37.4969 5.46875 36.7188ZM2.34375 43.182C2.34375 42.0711 3.13438 41.1047 4.22344 40.8844L6.75313 40.3711L8.39766 47.6562H2.34375V43.182ZM17.9688 47.6562H11.9148L13.5586 40.3734L16.0891 40.8844C17.1781 41.1047 17.9688 42.0711 17.9688 43.182V47.6562Z" fill="#0ABBE2"/>
<path d="M5.46875 3.90625H16.4062V5.46875H5.46875V3.90625Z" fill="#0ABBE2"/>
<path d="M5.46875 7.03125H13.2812V8.59375H5.46875V7.03125Z" fill="#0ABBE2"/>
<path d="M14.8438 7.03125H16.4062V8.59375H14.8438V7.03125Z" fill="#0ABBE2"/>
<path d="M5.33906 11.7188H10.6141L13.1867 14.2914C13.543 14.6477 14.0164 14.8438 14.5203 14.8438C15.5602 14.8438 16.4062 13.9977 16.4062 12.9578V11.7188H16.5359C18.1875 11.7188 19.5312 10.375 19.5312 8.72344V3.90625C19.5312 2.18281 18.1297 0.78125 16.4062 0.78125H5.46875C3.74531 0.78125 2.34375 2.18281 2.34375 3.90625V8.72344C2.34375 10.375 3.6875 11.7188 5.33906 11.7188ZM3.90625 3.90625C3.90625 3.04453 4.60703 2.34375 5.46875 2.34375H16.4062C17.268 2.34375 17.9688 3.04453 17.9688 3.90625V8.72344C17.9688 9.51328 17.3258 10.1562 16.5359 10.1562H14.8438V12.9578C14.8438 13.2219 14.4773 13.3727 14.2914 13.1867L11.2609 10.1562H5.33906C4.54922 10.1562 3.90625 9.51328 3.90625 8.72344V3.90625Z" fill="#0ABBE2"/>
</svg>
