<svg width="31" height="28" viewBox="0 0 31 28" fill="none" xmlns="http://www.w3.org/2000/svg">
<path d="M19.53 11.2159H0.93C0.759501 11.2159 0.619999 11.0727 0.619999 10.8977V8.67045C0.619999 8.49545 0.759501 8.35227 0.93 8.35227H19.53C19.7005 8.35227 19.84 8.49545 19.84 8.67045V10.8977C19.84 11.0727 19.7005 11.2159 19.53 11.2159ZM19.84 19.3295C19.84 19.5045 19.7005 19.6477 19.53 19.6477H0.93C0.759501 19.6477 0.619999 19.5045 0.619999 19.3295V17.1023C0.619999 16.9273 0.759501 16.7841 0.93 16.7841H19.53C19.7005 16.7841 19.84 16.9273 19.84 17.1023V19.3295ZM0.309999 0H30.69C30.8605 0 31 0.143182 31 0.318182V2.54545C31 2.72045 30.8605 2.86364 30.69 2.86364H0.309999C0.1395 2.86364 0 2.72045 0 2.54545V0.318182C0 0.143182 0.1395 0 0.309999 0ZM0.309999 25.1364H30.69C30.8605 25.1364 31 25.2795 31 25.4545V27.6818C31 27.8568 30.8605 28 30.69 28H0.309999C0.1395 28 0 27.8568 0 27.6818V25.4545C0 25.2795 0.1395 25.1364 0.309999 25.1364ZM30.8682 14.2744L24.8116 19.1705C24.5869 19.3534 24.2536 19.1903 24.2536 18.896V9.10398C24.2536 8.80966 24.583 8.64659 24.8116 8.82955L30.8682 13.7256C30.909 13.7581 30.9419 13.7997 30.9646 13.8472C30.9873 13.8948 30.9991 13.9471 30.9991 14C30.9991 14.0529 30.9873 14.1052 30.9646 14.1528C30.9419 14.2003 30.909 14.2419 30.8682 14.2744Z" fill="white"/>
</svg>
