<svg width="31" height="28" viewBox="0 0 31 28" fill="none" xmlns="http://www.w3.org/2000/svg">
<path d="M11.47 11.2159H30.07C30.2405 11.2159 30.38 11.0727 30.38 10.8977V8.67045C30.38 8.49545 30.2405 8.35227 30.07 8.35227H11.47C11.2995 8.35227 11.16 8.49545 11.16 8.67045V10.8977C11.16 11.0727 11.2995 11.2159 11.47 11.2159ZM11.16 19.3295C11.16 19.5045 11.2995 19.6477 11.47 19.6477H30.07C30.2405 19.6477 30.38 19.5045 30.38 19.3295V17.1023C30.38 16.9273 30.2405 16.7841 30.07 16.7841H11.47C11.2995 16.7841 11.16 16.9273 11.16 17.1023V19.3295ZM30.69 0H0.31C0.1395 0 0 0.143182 0 0.318182V2.54545C0 2.72045 0.1395 2.86364 0.31 2.86364H30.69C30.8605 2.86364 31 2.72045 31 2.54545V0.318182C31 0.143182 30.8605 0 30.69 0ZM30.69 25.1364H0.31C0.1395 25.1364 0 25.2795 0 25.4545V27.6818C0 27.8568 0.1395 28 0.31 28H30.69C30.8605 28 31 27.8568 31 27.6818V25.4545C31 25.2795 30.8605 25.1364 30.69 25.1364ZM0.13175 14.2744L6.18838 19.1705C6.41313 19.3534 6.74638 19.1903 6.74638 18.896V9.10398C6.74638 8.80966 6.417 8.64659 6.18838 8.82955L0.13175 13.7256C0.0910246 13.7581 0.0580701 13.7997 0.0354013 13.8472C0.0127325 13.8948 0.00094841 13.9471 0.00094841 14C0.00094841 14.0529 0.0127325 14.1052 0.0354013 14.1528C0.0580701 14.2003 0.0910246 14.2419 0.13175 14.2744Z" fill="#2C2C30"/>
</svg>
