<svg width="40" height="41" viewBox="0 0 40 41" fill="none" xmlns="http://www.w3.org/2000/svg">
<circle cx="20" cy="21" r="20" fill="#0ABBE2"/>
<path d="M22.413 26.4857C23.6618 26.2286 24.8273 25.7143 25.8263 25.0286C26.6588 24.5143 26.9086 23.4 26.4091 22.5429C25.9096 21.6857 24.8273 21.4286 23.9948 21.9429C21.5805 23.4857 18.4169 23.4857 16.0026 21.9429C15.1701 21.4286 14.0878 21.6857 13.5883 22.5429C13.0888 23.4 13.3386 24.5143 14.1711 25.0286C15.2534 25.7143 16.4189 26.2286 17.5844 26.4857L14.2543 29.9143C13.5883 30.6 13.5883 31.7143 14.2543 32.4857C14.5873 32.8286 15.0036 33 15.5031 33C15.9194 33 16.4189 32.8286 16.7519 32.4857L19.9987 29.1429L23.2455 32.4857C23.9115 33.1714 24.9938 33.1714 25.7431 32.4857C26.4091 31.8 26.4091 30.6857 25.7431 29.9143L22.413 26.4857ZM19.9987 9C16.7519 9 14.1711 11.6571 14.1711 15C14.1711 18.3429 16.7519 21 19.9987 21C23.2455 21 25.8263 18.3429 25.8263 15C25.8263 11.6571 23.2455 9 19.9987 9ZM19.9987 17.5714C18.5834 17.5714 17.5012 16.4571 17.5012 15C17.5012 13.5429 18.5834 12.4286 19.9987 12.4286C21.414 12.4286 22.4962 13.5429 22.4962 15C22.4962 16.4571 21.414 17.5714 19.9987 17.5714Z" fill="white"/>
</svg>
