<svg width="50" height="50" viewBox="0 0 50 50" fill="none" xmlns="http://www.w3.org/2000/svg">
<g clip-path="url(#clip0)">
<path d="M49.9999 6.91556C49.9999 4.81509 48.2198 3.10622 46.0318 3.10622H41.9108V2.25628C41.9108 1.01213 40.8565 0 39.5605 0H10.4394C9.1434 0 8.08919 1.01213 8.08919 2.25628V3.10622H3.96808C1.78009 3.10622 0 4.81509 0 6.91556V34.8721C0 36.9726 1.78009 38.6813 3.96808 38.6813H7.3844C7.789 38.6813 8.11683 38.3665 8.11683 37.9782C8.11683 37.5899 7.789 37.2751 7.3844 37.2751H3.96798C2.58771 37.2751 1.46475 36.1971 1.46475 34.8721V34.0218H48.535V34.8721C48.535 36.1972 47.412 37.2751 46.0317 37.2751H10.3141C9.90951 37.2751 9.58168 37.5899 9.58168 37.9782C9.58168 38.3665 9.90951 38.6813 10.3141 38.6813H18.6051L18.6052 43.4876H14.4564C13.6217 43.4876 12.9427 44.1395 12.9427 44.9408V46.5469C12.9427 47.3482 13.6217 48 14.4564 48H29.1976C29.6022 48 29.93 47.6852 29.93 47.2969C29.93 46.9086 29.6022 46.5938 29.1976 46.5938H14.4564C14.4296 46.5938 14.4076 46.5728 14.4076 46.5469V44.9408C14.4076 44.9149 14.4296 44.8939 14.4564 44.8939H35.5437C35.5705 44.8939 35.5925 44.9149 35.5925 44.9408V46.5469C35.5925 46.5728 35.5705 46.5938 35.5437 46.5938H32.1274C31.7228 46.5938 31.3949 46.9086 31.3949 47.2969C31.3949 47.6852 31.7228 48 32.1274 48H35.5437C36.3784 48 37.0574 47.3482 37.0574 46.5469V44.9408C37.0574 44.1395 36.3784 43.4876 35.5437 43.4876H31.3949V38.6813H46.0319C48.2199 38.6813 50 36.9725 50 34.8721V6.91556H49.9999ZM25.8855 43.4876H24.1145V41.8607C24.1145 41.8202 24.1489 41.7873 24.191 41.7873H25.8089C25.8511 41.7873 25.8854 41.8202 25.8854 41.8607V43.4876H25.8855ZM29.93 43.4876H27.3503V41.8607C27.3503 41.0448 26.6589 40.381 25.809 40.381H24.1911C23.3412 40.381 22.6498 41.0448 22.6498 41.8607V43.4876H20.0701L20.07 38.6813H29.9301V43.4876H29.93ZM45.2996 32.6154H41.9108V7.61887H44.4142C44.9024 7.61887 45.2996 8.00016 45.2996 8.46881V32.6154ZM8.08919 32.6154H4.70031V8.46881C4.70031 8.00016 5.09748 7.61887 5.58567 7.61887H8.0891V32.6154H8.08919ZM9.55404 24.7031H16.1784V32.6154H9.55404V24.7031ZM14.4075 11.575C14.4075 10.25 15.5304 9.17194 16.9108 9.17194C18.2911 9.17194 19.414 10.25 19.414 11.575C19.414 12.9001 18.291 13.9781 16.9107 13.9781C15.5304 13.9781 14.4075 12.9001 14.4075 11.575ZM16.9107 15.3844C17.4572 15.3844 17.9876 15.4857 18.4807 15.6812L17.4637 16.4623C17.1382 16.7124 16.6832 16.7124 16.3576 16.4623L15.3425 15.6828C15.8263 15.4909 16.3557 15.3844 16.9107 15.3844ZM14.0536 16.4936L15.4426 17.5603C15.8749 17.8923 16.3928 18.0583 16.9108 18.0583C17.4288 18.0583 17.9468 17.8924 18.379 17.5603L19.8197 16.4538L21.3289 17.4225C21.7226 17.6745 22.2068 17.7392 22.6571 17.5995C23.1074 17.4601 23.4609 17.1362 23.6271 16.7108L23.7232 16.4647L25.4039 17.0037L24.2114 20.0566C24.116 20.3009 23.9128 20.487 23.654 20.5672C23.3996 20.6462 23.1141 20.6081 22.8912 20.4653L22.4968 20.213V19.3406C22.4968 18.9523 22.1689 18.6375 21.7643 18.6375C21.3598 18.6375 21.0319 18.9523 21.0319 19.3406V20.5875C21.0319 20.5908 21.0318 20.5941 21.0319 20.5974V23.2969H12.7897V19.3406C12.7896 18.2234 13.2752 17.2137 14.0536 16.4936ZM24.3828 14.7762C24.3858 14.7689 24.3888 14.7615 24.3914 14.7541L24.98 13.2473C25.0631 13.0348 25.2273 12.866 25.4428 12.772C25.6106 12.6988 25.7939 12.6786 25.9714 12.7108L25.9071 12.9577C25.8091 13.3343 26.0477 13.7161 26.44 13.8103C26.4997 13.8247 26.5595 13.8315 26.6183 13.8315C26.6266 13.8315 26.6347 13.8298 26.643 13.8295C26.6411 13.8345 26.6399 13.8395 26.638 13.8444L25.9185 15.6864L24.2377 15.1475L24.3828 14.7762ZM27.9486 12.6122C27.865 12.4353 27.7576 12.2737 27.6337 12.1263L28.9462 7.08609C29.0443 6.70941 28.8057 6.32766 28.4133 6.23344C28.0207 6.13922 27.6233 6.36825 27.525 6.74503L26.3272 11.3451C25.829 11.2359 25.3101 11.2852 24.8368 11.4917C24.5613 11.6119 24.3183 11.7792 24.1145 11.9825V4.58597C24.1145 4.54547 24.1489 4.51256 24.191 4.51256H37.1337C37.1759 4.51256 37.2102 4.54556 37.2102 4.58597V13.9047C37.2102 13.9452 37.1758 13.9782 37.1337 13.9782H28.1156C28.2099 13.5198 28.154 13.046 27.9486 12.6122ZM17.6431 24.7031H40.4459V32.6154H17.6431V24.7031ZM10.4394 1.40625H39.5605C40.0487 1.40625 40.4459 1.78753 40.4459 2.25628V23.2969H22.4968V21.8472C22.7765 21.9566 23.076 22.0145 23.3824 22.0145C23.6278 22.0145 23.8705 21.9778 24.1037 21.9055C24.7903 21.6929 25.3296 21.199 25.5829 20.5504L27.6009 15.3843H37.1337C37.9836 15.3843 38.6751 14.7204 38.6751 13.9045V4.58578C38.6751 3.76988 37.9836 3.10612 37.1337 3.10612H24.191C23.3411 3.10612 22.6497 3.76988 22.6497 4.58578V13.9045C22.6497 14.1752 22.7265 14.4324 22.8649 14.6568L22.2555 16.2171C22.2522 16.2252 22.2425 16.2502 22.2074 16.2611C22.1721 16.2719 22.1489 16.2571 22.1423 16.2529L20.1975 15.0046C19.9432 14.8267 19.6764 14.6715 19.3996 14.5387C20.3009 13.8398 20.8788 12.7712 20.8788 11.5748C20.8788 9.47437 19.0988 7.7655 16.9107 7.7655C14.7226 7.7655 12.9425 9.47437 12.9425 11.5748C12.9425 12.7722 13.5214 13.8416 14.4242 14.5405C14.1579 14.6682 13.9039 14.8158 13.6638 14.9811C13.6294 15.0009 13.5961 15.0233 13.565 15.0489C12.2058 16.028 11.3248 17.5872 11.3248 19.3404V23.2967H9.55404V2.25628C9.55404 1.78753 9.95121 1.40625 10.4394 1.40625ZM1.46485 6.91556C1.46485 5.5905 2.5878 4.51247 3.96808 4.51247H8.08919V6.21262H5.58576C4.28976 6.21262 3.23556 7.22475 3.23556 8.46881V32.6154H1.46485V6.91556ZM46.7644 32.6154V8.46881C46.7644 7.22475 45.7101 6.21262 44.4142 6.21262H41.9108V4.51247H46.0318C47.4121 4.51247 48.5351 5.5905 48.5351 6.91556V32.6154H46.7644Z" fill="white"/>
<path d="M37.9428 29.1197H25.615C25.3064 28.1814 24.4225 27.502 23.3822 27.502C22.342 27.502 21.458 28.1815 21.1495 29.1197H20.1465C19.7419 29.1197 19.4141 29.4477 19.4141 29.8521C19.4141 30.2566 19.7419 30.5846 20.1465 30.5846H21.1494C21.458 31.5229 22.342 32.2024 23.3821 32.2024C24.4224 32.2024 25.3064 31.5229 25.6149 30.5846H37.9427C38.3473 30.5846 38.6751 30.2566 38.6751 29.8521C38.6752 29.4477 38.3473 29.1197 37.9428 29.1197ZM23.3822 30.7376C22.894 30.7376 22.4969 30.3404 22.4969 29.8521C22.4969 29.364 22.894 28.9668 23.3822 28.9668C23.8704 28.9668 24.2676 29.364 24.2676 29.8521C24.2677 30.3403 23.8704 30.7376 23.3822 30.7376Z" fill="white"/>
<path d="M13.2718 29.1211H12.4629C12.0583 29.1211 11.7305 29.449 11.7305 29.8535C11.7305 30.258 12.0583 30.5859 12.4629 30.5859H13.2718C13.6764 30.5859 14.0042 30.258 14.0042 29.8535C14.0042 29.449 13.6764 29.1211 13.2718 29.1211Z" fill="white"/>
</g>
<defs>
<clipPath id="clip0">
<rect width="50" height="50" fill="white"/>
</clipPath>
</defs>
</svg>
