<svg width="50" height="50" viewBox="0 0 50 50" fill="none" xmlns="http://www.w3.org/2000/svg">
<g clip-path="url(#clip0)">
<path d="M40.9099 45.1474H39.4883V46.7592H40.9099C42.3282 46.7592 43.6039 45.971 44.2389 44.7017L42.7972 43.9805C42.437 44.7001 41.7141 45.1474 40.9099 45.1474Z" fill="white"/>
<path d="M49.6027 34.7381L48.9395 32.0811L46.1068 32.7895C45.8215 32.8612 45.5306 32.9071 45.2389 32.9499C46.2341 30.4226 46.741 27.7551 46.741 24.9998C46.741 22.5 46.3195 20.0663 45.4967 17.7437C47.0473 17.7252 48.5228 17.0547 49.5527 15.8918L50.0008 15.3857L49.859 14.9481C49.394 13.512 49.1587 12.0195 49.1587 10.5117V8.9161C49.1587 4.0091 45.1671 0.0175781 40.2601 0.0175781C36.9278 0.0175781 34.0218 1.86143 32.4979 4.57966C30.0956 3.69481 27.5716 3.2411 24.9823 3.2411C22.1528 3.2411 19.4136 3.77862 16.8244 4.82787C16.4738 3.16857 15.1102 1.87916 13.4066 1.66157C12.8538 0.644552 11.8037 0.0175781 10.6408 0.0175781C9.99774 0.0175781 9.38447 0.208572 8.86468 0.56477C8.34569 0.209377 7.73242 0.0175781 7.08852 0.0175781C5.92644 0.0175781 4.87638 0.644552 4.32274 1.66157C2.45229 1.90011 0.978338 3.42564 0.81958 5.32027C0.296564 5.91581 0 6.6959 0 7.49131C0 7.9974 0.11927 8.5051 0.346528 8.96042L0.428728 9.12482C0.159564 9.51487 0 9.9855 0 10.494C0 11.8269 1.08471 12.9117 2.41764 12.9117H2.62959C2.99868 14.3373 3.84082 15.5702 4.98275 16.435C3.81987 19.1427 3.22352 22.0189 3.22352 24.9998C3.22352 27.8551 3.77152 30.6184 4.84011 33.2287C1.97199 34.6986 0 37.6788 0 41.1174V46.4032C0 48.3768 1.60531 49.9821 3.57891 49.9821C3.96493 49.9821 4.3453 49.9201 4.71117 49.7984L6.08117 49.3414C6.92573 49.7476 7.867 49.9821 8.86468 49.9821C9.86236 49.9821 10.8036 49.7476 11.6474 49.3414L13.0174 49.7984C13.3832 49.9201 13.7644 49.9821 14.1504 49.9821C16.124 49.9821 17.7294 48.3768 17.7294 46.4032V45.5175C20.0519 46.3395 22.4848 46.7586 24.9823 46.7586C28.0116 46.7586 30.9353 46.1429 33.6842 44.9413C33.9815 45.0719 34.3079 45.1468 34.6528 45.1468H34.8648C35.5836 47.9231 38.102 49.9821 41.0999 49.9821C44.0977 49.9821 46.6161 47.9231 47.335 45.1468H47.5469C48.8798 45.1468 49.9645 44.0621 49.9645 42.7292C49.9645 42.157 49.7566 41.6372 49.423 41.223C49.7768 40.0706 49.9645 38.8787 49.9645 37.6731C49.9645 36.6843 49.8429 35.6963 49.6027 34.7381ZM35.3918 11.2999V9.0942C35.3918 8.37858 35.8729 7.74113 36.5603 7.54449L38.5485 6.97635C39.6122 7.6823 40.8799 8.07638 42.2192 8.07638H43.4506C44.3395 8.07638 45.0624 8.79925 45.0624 9.68813V11.2999C45.0624 13.9665 42.8938 16.1352 40.2271 16.1352C37.5604 16.1352 35.3918 13.9665 35.3918 11.2999ZM40.2601 1.62934C44.2775 1.62934 47.5469 4.89798 47.5469 8.9161V10.5117C47.5469 12.0308 47.7621 13.5354 48.186 14.9916C47.2632 15.9176 45.8707 16.2899 44.5982 16.0256C45.8715 14.8474 46.6741 13.1679 46.6741 11.2999V9.68813C46.6741 7.91036 45.2284 6.46462 43.4506 6.46462H42.2192C40.3037 6.46462 38.5807 5.40005 37.7248 3.68675L36.2831 4.40801C36.5192 4.87945 36.8037 5.31382 37.1317 5.70548L36.1187 5.99479C34.7423 6.38725 33.7809 7.66215 33.7809 9.0942V11.2999C33.7809 13.1736 34.5892 14.8587 35.8705 16.0377C34.6141 16.2802 33.2458 15.9055 32.3359 14.9916C32.7598 13.5354 32.975 12.0308 32.975 10.5117V8.9161C32.9742 4.89798 36.2428 1.62934 40.2601 1.62934ZM15.3117 9.68813C15.7566 9.68813 16.1176 10.05 16.1176 10.494C16.1176 10.9381 15.7566 11.2999 15.3117 11.2999V9.68813ZM1.61176 10.494C1.61176 10.05 1.97279 9.68813 2.41764 9.68813V11.2999C1.97279 11.2999 1.61176 10.9381 1.61176 10.494ZM2.58526 8.07638H2.41764C2.19038 8.07638 1.97441 8.11828 1.76568 8.17711C1.66898 7.96113 1.61176 7.72662 1.61176 7.49131C1.61176 7.0513 1.79066 6.61934 2.09932 6.30989L2.41764 5.99398V5.65874C2.41764 4.32581 3.50235 3.2411 4.83528 3.2411H5.33412L5.71449 2.47873C5.9764 1.95491 6.50264 1.62934 7.08852 1.62934C7.49952 1.62934 7.88473 1.7889 8.17484 2.07821L8.86468 2.77127L9.5537 2.07982C9.84463 1.7889 10.2298 1.62934 10.6408 1.62934C11.2267 1.62934 11.7529 1.95491 12.0149 2.47793L12.3952 3.2411H12.8941C14.227 3.2411 15.3117 4.32581 15.3117 5.65874V5.99398L15.6284 6.30908C15.9387 6.61934 16.1176 7.0513 16.1176 7.49131C16.1176 7.72743 16.0604 7.96194 15.9637 8.17711C15.7549 8.11828 15.539 8.07638 15.3117 8.07638H14.8636C14.3044 7.11738 13.2761 6.46462 12.0882 6.46462H10.8568C8.94124 6.46462 7.21826 5.40005 6.36242 3.68675L4.9199 4.4072C5.15602 4.87864 5.44049 5.31301 5.76849 5.70467L4.7555 5.99479C3.71833 6.29054 2.91728 7.08837 2.58526 8.07638ZM4.0294 11.2999V9.0942C4.0294 8.37858 4.51051 7.74113 5.19792 7.54449L7.18603 6.97635C8.24979 7.6823 9.51825 8.07638 10.8568 8.07638H12.0882C12.9771 8.07638 13.7 8.79925 13.7 9.68813V11.2999C13.7 13.9665 11.5313 16.1352 8.86468 16.1352C6.19802 16.1352 4.0294 13.9665 4.0294 11.2999ZM4.0294 43.5351V41.3294C4.0294 40.6138 4.51051 39.9763 5.19792 39.7797L7.18603 39.2115C8.24979 39.9175 9.51825 40.3116 10.8568 40.3116H12.0882C12.9771 40.3116 13.7 41.0344 13.7 41.9233V43.5351C13.7 46.2017 11.5313 48.3704 8.86468 48.3704C6.19802 48.3704 4.0294 46.2017 4.0294 43.5351ZM16.1176 46.4032C16.1176 47.4879 15.2352 48.3704 14.1504 48.3704C13.9385 48.3704 13.7298 48.3365 13.5283 48.2696L13.3075 48.1963C14.5389 47.0205 15.3117 45.3676 15.3117 43.5351V41.9233C15.3117 40.1455 13.866 38.6998 12.0882 38.6998H10.8568C8.94124 38.6998 7.21826 37.6352 6.36242 35.9219L4.9207 36.6432C5.15682 37.1146 5.4413 37.549 5.76929 37.9407L4.7563 38.23C3.37905 38.6224 2.41764 39.8973 2.41764 41.3294V43.5351C2.41764 45.3676 3.19048 47.0205 4.42267 48.1955L4.20186 48.2688C4.00039 48.3365 3.79086 48.3704 3.57891 48.3704C2.4942 48.3704 1.61176 47.4879 1.61176 46.4032V41.1174C1.61176 37.1187 4.8651 33.8645 8.86468 33.8645C12.8643 33.8645 16.1176 37.1187 16.1176 41.1174V46.4032ZM17.7294 43.7954V41.1174C17.7294 36.2298 13.7523 32.2528 8.86468 32.2528C7.98546 32.2528 7.13687 32.3857 6.33421 32.6251C5.34379 30.2074 4.83528 27.6472 4.83528 24.9998C4.83528 22.305 5.35991 19.7028 6.38498 17.2497C7.14896 17.5688 7.98627 17.7469 8.86468 17.7469C11.8617 17.7469 14.3809 15.6879 15.0998 12.9117H15.3117C16.6446 12.9117 17.7294 11.8269 17.7294 10.494C17.7294 9.9855 17.5698 9.51487 17.3006 9.12482L17.3836 8.95881C17.6101 8.5051 17.7294 7.9974 17.7294 7.49131C17.7294 7.0795 17.6463 6.67334 17.4973 6.29296C19.8746 5.33961 22.3865 4.85286 24.9823 4.85286C27.3451 4.85286 29.6483 5.25902 31.8427 6.05442C31.5365 6.95378 31.3624 7.91359 31.3624 8.9153V10.5109C31.3624 12.0187 31.1271 13.5112 30.6629 14.9465L30.5211 15.3841L30.9692 15.8902C32.0128 17.0708 33.5141 17.7469 35.0888 17.7469C35.939 17.7469 36.79 17.5455 37.5484 17.1667L37.5588 17.1619C38.3728 17.5342 39.2745 17.7469 40.2271 17.7469C41.1925 17.7469 42.1064 17.5277 42.9292 17.1449L42.9711 17.1659C43.1935 17.2771 43.424 17.3674 43.6593 17.4479C44.6312 19.8462 45.1293 22.384 45.1293 24.9998C45.1293 27.7971 44.5627 30.4935 43.4579 33.0296C42.8776 32.9998 42.299 32.9313 41.7341 32.7895L40.2827 32.4268C39.8217 32.3116 39.3455 32.2528 38.8692 32.2528C38.7539 32.2528 38.6419 32.2632 38.5283 32.2697C38.6226 32.0118 38.6822 31.737 38.6822 31.4469C38.6822 30.3976 38.0061 29.5112 37.0705 29.1775V22.5822V20.9704C37.0705 20.0816 36.3476 19.3587 35.4587 19.3587H28.0285L27.7666 18.3094C27.4475 17.0289 26.3023 16.1352 24.9823 16.1352C23.6622 16.1352 22.5171 17.0289 22.198 18.3094L21.936 19.3587H14.5058C13.6169 19.3587 12.8941 20.0816 12.8941 20.9704V22.5822C12.8941 23.4711 13.6169 24.194 14.5058 24.194H16.1176V29.0292C16.1176 29.9181 16.8405 30.641 17.7294 30.641H32.2352C33.1241 30.641 33.8469 29.9181 33.8469 29.0292V24.194H35.4587V29.1775C34.5231 29.5112 33.8469 30.3976 33.8469 31.4469C33.8469 32.3809 34.3853 33.1844 35.1629 33.5865C33.8679 34.6567 33.0411 36.2741 33.0411 38.0817V40.9401C32.5503 41.3826 32.2352 42.0176 32.2352 42.7292C32.2352 43.0814 32.315 43.4134 32.4504 43.7156C30.0795 44.6649 27.5724 45.1468 24.9823 45.1468C22.476 45.1468 20.0398 44.6883 17.7294 43.7954ZM17.7294 24.194H32.2352V29.0292H17.7294V24.194ZM14.5058 22.5822V20.9704H35.4587L35.4595 22.5822H35.4587H14.5058ZM23.5962 19.3587L23.7606 18.7003C23.9016 18.1386 24.4037 17.7469 24.9823 17.7469C25.5609 17.7469 26.063 18.1386 26.204 18.7003L26.3684 19.3587H23.5962ZM36.2646 30.641C36.7094 30.641 37.0705 31.0028 37.0705 31.4469C37.0705 31.8909 36.7094 32.2528 36.2646 32.2528C35.8197 32.2528 35.4587 31.8909 35.4587 31.4469C35.4587 31.0028 35.8197 30.641 36.2646 30.641ZM33.8469 42.7292C33.8469 42.2852 34.208 41.9233 34.6528 41.9233V43.5351C34.208 43.5351 33.8469 43.1732 33.8469 42.7292ZM45.9351 43.5351C45.9351 46.2017 43.7665 48.3704 41.0999 48.3704C38.4332 48.3704 36.2646 46.2017 36.2646 43.5351V41.3294C36.2646 40.6138 36.7457 39.9763 37.4331 39.7797L39.4212 39.2115C40.485 39.9175 41.7534 40.3116 43.092 40.3116H44.3234C45.2123 40.3116 45.9351 41.0344 45.9351 41.9233V43.5351ZM44.3234 38.6998H43.092C41.1764 38.6998 39.4535 37.6352 38.5976 35.9219L37.1559 36.6432C37.392 37.1146 37.6765 37.549 38.0045 37.9407L36.9915 38.23C35.9535 38.5257 35.1533 39.3236 34.8213 40.3116H34.6528V38.0817C34.6528 35.7567 36.545 33.8645 38.8692 33.8645C39.2141 33.8645 39.5574 33.9072 39.8927 33.9902L41.344 34.3529C43.0267 34.7736 44.815 34.7736 46.4977 34.3529L47.7669 34.0354L48.0401 35.1281C48.2472 35.9598 48.3528 36.8157 48.3528 37.6731C48.3528 38.5821 48.2295 39.4815 47.9974 40.3575C47.8507 40.3293 47.7008 40.3116 47.5469 40.3116H47.0988C46.5396 39.3526 45.5112 38.6998 44.3234 38.6998ZM47.5469 43.5351V41.9233C47.9917 41.9233 48.3528 42.2852 48.3528 42.7292C48.3528 43.1732 47.9917 43.5351 47.5469 43.5351Z" fill="white"/>
<path d="M12.0046 12.4654L10.5628 11.7441C10.2026 12.4638 9.47975 12.9111 8.67548 12.9111H7.25391V14.5228H8.67548C10.093 14.5228 11.3687 13.7347 12.0046 12.4654Z" fill="white"/>
<path d="M8.67548 45.1474H7.25391V46.7592H8.67548C10.0938 46.7592 11.3695 45.971 12.0046 44.7017L10.5628 43.9805C10.2026 44.7001 9.47975 45.1474 8.67548 45.1474Z" fill="white"/>
<path d="M43.3679 12.4654L41.9261 11.7441C41.5659 12.4638 40.843 12.9111 40.0388 12.9111H38.6172V14.5228H40.0388C41.4563 14.5228 42.732 13.7347 43.3679 12.4654Z" fill="white"/>
</g>
<defs>
<clipPath id="clip0">
<rect width="50" height="50" fill="white"/>
</clipPath>
</defs>
</svg>
