<svg width="50" height="52" viewBox="0 0 50 52" fill="none" xmlns="http://www.w3.org/2000/svg">
<g clip-path="url(#clip0)">
<path d="M25 22.4983C24.8783 22.4983 24.7575 22.4716 24.645 22.4191L10.4783 15.7524C10.1867 15.6149 10 15.3208 10 14.9983C10 14.6758 10.1867 14.3816 10.4783 14.2441L24.645 7.57742C24.87 7.47159 25.13 7.47159 25.355 7.57742L39.5217 14.2441C39.8133 14.3816 40 14.6758 40 14.9983C40 15.3208 39.8133 15.6149 39.5217 15.7524L25.355 22.4191C25.2425 22.4716 25.1217 22.4983 25 22.4983ZM12.7908 14.9983L25 20.7441L37.2092 14.9983L25 9.25242L12.7908 14.9983Z" fill="white"/>
<path d="M25.0013 29.1679C24.8738 29.1679 24.7455 29.1388 24.6288 29.0804L14.6288 24.0804C14.3463 23.9388 14.168 23.6504 14.168 23.3346V16.9621C14.168 16.6771 14.3138 16.4113 14.5546 16.2588C14.7955 16.1054 15.098 16.0879 15.3555 16.2079L25.0013 20.7471L34.6463 16.2079C34.9046 16.0871 35.2071 16.1054 35.4471 16.2588C35.6888 16.4113 35.8346 16.6771 35.8346 16.9621V23.3346C35.8346 23.6504 35.6563 23.9388 35.3738 24.0804L25.3738 29.0804C25.2571 29.1388 25.1288 29.1679 25.0013 29.1679ZM15.8346 22.8196L25.0013 27.4029L34.168 22.8196V18.2754L25.3563 22.4221C25.1313 22.5279 24.8713 22.5279 24.6463 22.4221L15.8346 18.2754V22.8196Z" fill="white"/>
<path d="M39.168 15.8327H25.0013C24.5413 15.8327 24.168 15.4594 24.168 14.9994C24.168 14.5393 24.5413 14.166 25.0013 14.166H39.168C39.628 14.166 40.0013 14.5393 40.0013 14.9994C40.0013 15.4594 39.628 15.8327 39.168 15.8327Z" fill="white"/>
<path d="M39.1654 23.3327C38.7054 23.3327 38.332 22.9593 38.332 22.4993V14.9993C38.332 14.5393 38.7054 14.166 39.1654 14.166C39.6254 14.166 39.9987 14.5393 39.9987 14.9993V22.4993C39.9987 22.9593 39.6254 23.3327 39.1654 23.3327Z" fill="white"/>
<path d="M25.0013 17.5C24.5413 17.5 24.168 17.1267 24.168 16.6667V13.3333C24.168 12.8733 24.5413 12.5 25.0013 12.5C25.4613 12.5 25.8346 12.8733 25.8346 13.3333V16.6667C25.8346 17.1267 25.4613 17.5 25.0013 17.5Z" fill="white"/>
<path d="M37.5004 25.8335C37.342 25.8335 37.1812 25.7885 37.0387 25.6935C36.6562 25.4385 36.5529 24.921 36.8079 24.5377L38.4745 22.0377C38.7295 21.6544 39.2462 21.5502 39.6304 21.8069C40.0129 22.0619 40.1162 22.5794 39.8612 22.9627L38.1945 25.4627C38.0337 25.7035 37.7695 25.8335 37.5004 25.8335Z" fill="white"/>
<path d="M40.8328 25.8335C40.5636 25.8335 40.2994 25.7035 40.1386 25.4627L38.4719 22.9627C38.2169 22.5802 38.3203 22.0619 38.7028 21.8069C39.0853 21.5502 39.6028 21.6544 39.8586 22.0377L41.5253 24.5377C41.7803 24.9202 41.6769 25.4385 41.2944 25.6935C41.1519 25.7885 40.9911 25.8335 40.8328 25.8335Z" fill="white"/>
<path d="M25.0013 24.9987C24.5413 24.9987 24.168 24.6254 24.168 24.1654V21.6654C24.168 21.2054 24.5413 20.832 25.0013 20.832C25.4613 20.832 25.8346 21.2054 25.8346 21.6654V24.1654C25.8346 24.6254 25.4613 24.9987 25.0013 24.9987Z" fill="white"/>
<path d="M49.1667 32.5007H0.833333C0.373333 32.5007 0 32.1273 0 31.6673V4.16815C0 2.32982 1.49583 0.833984 3.33417 0.833984H46.6658C48.5042 0.833984 50 2.32982 50 4.16815V31.6673C50 32.1273 49.6267 32.5007 49.1667 32.5007ZM1.66667 30.834H48.3333V4.16815C48.3333 3.24815 47.5858 2.50065 46.6658 2.50065H3.33417C2.41417 2.50065 1.66667 3.24815 1.66667 4.16815V30.834Z" fill="white"/>
<path d="M46.6658 38.1673H3.33417C1.49583 38.1673 0 36.6715 0 34.8331V30.6673C0 30.2073 0.373333 29.834 0.833333 29.834H49.1667C49.6267 29.834 50 30.2073 50 30.6673V34.8331C50 36.6715 48.5042 38.1673 46.6658 38.1673ZM1.66667 31.5007V34.8331C1.66667 35.7531 2.41417 36.5006 3.33417 36.5006H46.6658C47.5858 36.5006 48.3333 35.7531 48.3333 34.8331V31.5007H1.66667Z" fill="white"/>
<path d="M27.5013 35.8327H22.5013C22.0413 35.8327 21.668 35.4593 21.668 34.9993C21.668 34.5393 22.0413 34.166 22.5013 34.166H27.5013C27.9613 34.166 28.3346 34.5393 28.3346 34.9993C28.3346 35.4593 27.9613 35.8327 27.5013 35.8327Z" fill="white"/>
<path d="M45.832 32.5013H4.16536C3.70536 32.5013 3.33203 32.128 3.33203 31.668V5.0013C3.33203 4.5413 3.70536 4.16797 4.16536 4.16797H45.832C46.292 4.16797 46.6654 4.5413 46.6654 5.0013V31.668C46.6654 32.128 46.292 32.5013 45.832 32.5013ZM4.9987 30.8346H44.9987V5.83464H4.9987V30.8346Z" fill="white"/>
<path d="M35.8346 48.166H14.168C12.7896 48.166 11.668 47.0443 11.668 45.666C11.668 44.2877 12.7896 43.166 14.168 43.166H35.8346C37.213 43.166 38.3346 44.2877 38.3346 45.666C38.3346 47.0443 37.213 48.166 35.8346 48.166ZM14.168 44.8327C13.7088 44.8327 13.3346 45.2068 13.3346 45.666C13.3346 46.1252 13.7088 46.4993 14.168 46.4993H35.8346C36.2938 46.4993 36.668 46.1252 36.668 45.666C36.668 45.2068 36.2938 44.8327 35.8346 44.8327H14.168Z" fill="white"/>
<path d="M34.1667 44.8333H15.8333C15.3733 44.8333 15 44.46 15 44C15 43.54 15.3733 43.1667 15.8333 43.1667C18.5983 43.1667 20 41.2042 20 37.3333C20 36.8733 20.3733 36.5 20.8333 36.5H29.1667C29.6267 36.5 30 36.8733 30 37.3333C30 41.2042 31.4017 43.1667 34.1667 43.1667C34.6267 43.1667 35 43.54 35 44C35 44.46 34.6267 44.8333 34.1667 44.8333ZM19.8925 43.1667H30.1083C29.0817 42.03 28.4775 40.3375 28.3567 38.1667H21.6442C21.5225 40.3375 20.9192 42.03 19.8925 43.1667Z" fill="white"/>
</g>
<defs>
<clipPath id="clip0">
<rect width="50" height="52" fill="white"/>
</clipPath>
</defs>
</svg>
