<svg width="40" height="40" viewBox="0 0 40 40" fill="none" xmlns="http://www.w3.org/2000/svg">
<path d="M20 0C8.95601 0 0 8.95601 0 20C0 31.044 8.95601 40 20 40C31.044 40 40 31.044 40 20C40 8.95601 31.044 0 20 0ZM30.0336 15.3026V18.0106C28.7566 18.0111 27.5159 17.7609 26.3458 17.2672C25.5934 16.9495 24.8923 16.5402 24.2512 16.0456L24.2704 24.381C24.2623 26.258 23.5198 28.0215 22.1758 29.3498C21.082 30.4311 19.6961 31.1187 18.1939 31.3412C17.8409 31.3935 17.4817 31.4203 17.1184 31.4203C15.5104 31.4203 13.9838 30.8994 12.7349 29.9383C12.4999 29.7573 12.2752 29.5612 12.0612 29.3498C10.6046 27.9102 9.85352 25.9591 9.98 23.9066C10.0765 22.3441 10.702 20.8541 11.7448 19.6862C13.1245 18.1407 15.0547 17.2829 17.1184 17.2829C17.4817 17.2829 17.8409 17.3102 18.1939 17.3624V18.3637V21.149C17.8592 21.0386 17.5018 20.9779 17.1296 20.9779C15.2441 20.9779 13.7188 22.5162 13.747 24.403C13.7648 25.6103 14.4243 26.6656 15.397 27.2473C15.8541 27.5208 16.3799 27.6902 16.9411 27.7209C17.3808 27.7451 17.803 27.6838 18.1939 27.5548C19.541 27.1098 20.5128 25.8445 20.5128 24.3521L20.5173 18.7703V8.57969H24.2466C24.2502 8.94922 24.2877 9.30977 24.3574 9.65914C24.6389 11.0733 25.436 12.3002 26.5454 13.1366C27.5127 13.8662 28.7173 14.2987 30.0228 14.2987C30.0237 14.2987 30.0345 14.2987 30.0335 14.2978V15.3026H30.0336Z" fill="#0ABBE2"/>
</svg>
