<svg width="40" height="40" viewBox="0 0 40 40" fill="none" xmlns="http://www.w3.org/2000/svg">
<g clip-path="url(#clip0_274:2009)">
<path d="M19.9998 39.9996C31.0454 39.9996 39.9996 31.0454 39.9996 19.9998C39.9996 8.95423 31.0454 0 19.9998 0C8.95423 0 0 8.95423 0 19.9998C0 31.0454 8.95423 39.9996 19.9998 39.9996Z" fill="#0ABBE2"/>
<path d="M32.2504 15.3726C31.3933 15.7527 30.4714 16.0097 29.5045 16.1245C30.4917 15.5331 31.2493 14.5972 31.6069 13.4802C30.6831 14.0282 29.6596 14.4257 28.5711 14.64C27.6991 13.7113 26.4566 13.1309 25.0808 13.1309C22.4412 13.1309 20.3003 15.2717 20.3003 17.9114C20.3003 18.2861 20.3427 18.6508 20.4247 19.0009C16.4517 18.8016 12.929 16.8985 10.571 14.0054C10.1596 14.7113 9.92358 15.5331 9.92358 16.409C9.92358 18.0672 10.7682 19.531 12.0502 20.3881C11.2669 20.3635 10.5293 20.1485 9.88507 19.7895C9.88472 19.8098 9.88472 19.8301 9.88472 19.8501C9.88472 22.1664 11.5332 24.0984 13.7198 24.5372C13.319 24.647 12.8958 24.7051 12.4605 24.7051C12.1518 24.7051 11.8527 24.6756 11.5611 24.6199C12.1693 26.5187 13.9344 27.901 16.0268 27.9398C14.3904 29.2222 12.3293 29.9862 10.089 29.9862C9.70396 29.9862 9.32249 29.9638 8.94922 29.9192C11.0637 31.2761 13.5771 32.0672 16.2767 32.0672C25.0698 32.0672 29.8785 24.7829 29.8785 18.465C29.8785 18.2579 29.8738 18.0515 29.8646 17.8468C30.7994 17.173 31.6097 16.3313 32.2504 15.3726Z" fill="white"/>
</g>
<defs>
<clipPath id="clip0_274:2009">
<rect width="40" height="40" fill="white"/>
</clipPath>
</defs>
</svg>
