<svg width="40" height="40" viewBox="0 0 40 40" fill="none" xmlns="http://www.w3.org/2000/svg">
<path d="M20 40C31.0457 40 40 31.0457 40 20C40 8.95431 31.0457 0 20 0C8.95431 0 0 8.95431 0 20C0 31.0457 8.95431 40 20 40Z" fill="#0ABBE2"/>
<path fill-rule="evenodd" clip-rule="evenodd" d="M19.253 25.9498H20.6278C20.6278 25.9498 21.0431 25.9081 21.2551 25.699C21.4502 25.5071 21.444 25.1468 21.444 25.1468C21.444 25.1468 21.4171 23.4597 22.2733 23.2112C23.1173 22.9665 24.2011 24.8418 25.3498 25.5628C26.2185 26.1085 26.8785 25.9889 26.8785 25.9889L29.9501 25.9498C29.9501 25.9498 31.5568 25.8592 30.795 24.7039C30.7325 24.6093 30.3513 23.8492 28.5113 22.2871C26.5853 20.6523 26.8433 20.9167 29.1632 18.0888C30.5761 16.3666 31.1409 15.3152 30.9645 14.8648C30.7962 14.4359 29.7571 14.5493 29.7571 14.5493L26.2987 14.569C26.2987 14.569 26.0424 14.537 25.8522 14.641C25.6664 14.7429 25.5468 14.9805 25.5468 14.9805C25.5468 14.9805 24.9995 16.3132 24.2695 17.4466C22.7295 19.8382 22.1137 19.9644 21.8621 19.8159C21.2766 19.4698 21.4228 18.4255 21.4228 17.6836C21.4228 15.366 21.8071 14.3997 20.6743 14.1495C20.2984 14.0664 20.0217 14.0116 19.0603 14.0027C17.8264 13.991 16.7819 14.0062 16.1905 14.2712C15.7971 14.4473 15.4936 14.84 15.6785 14.8626C15.907 14.8905 16.4247 14.9902 16.6992 15.332C17.0536 15.7729 17.0411 16.7632 17.0411 16.7632C17.0411 16.7632 17.2447 19.4915 16.5655 19.8305C16.0994 20.0629 15.4599 19.5883 14.087 17.4186C13.3835 16.3072 12.8524 15.0787 12.8524 15.0787C12.8524 15.0787 12.75 14.8491 12.5673 14.7263C12.3456 14.5776 12.0359 14.5302 12.0359 14.5302L8.74952 14.5499C8.74952 14.5499 8.25618 14.5624 8.07508 14.7586C7.91397 14.9331 8.06228 15.294 8.06228 15.294C8.06228 15.294 10.6351 20.7991 13.5484 23.5733C16.2196 26.1168 19.253 25.9498 19.253 25.9498Z" fill="white"/>
</svg>
